<?xml version="1.0" encoding="UTF-8" standalone="no"?>

<svg
	xmlns="http://www.w3.org/2000/svg" version="1.1"
	xmlns:freecad="http://www.freecadweb.org/wiki/index.php?title=Svg_Namespace"
	width="297mm"
	height="210mm"
	viewBox="0 0 297 210">
	<!-- Working space 10 10 287 200 -->
	<!-- Title block 107 162 287 200 -->
	<g>
		<rect
			id="drawing-border"
			style="fill:none;stroke:#000000;stroke-width:0.35;stroke-linecap:miter;stroke-miterlimit:4"
			width="277"
			height="190"
			x="10"
			y="10" />
			<!-- width-20, height-20 -->
		<g
			transform="translate(87,-65)">
			<!-- A4 Portrait based for other formats width-210, height-297 -->
			<!--        page       rect   translation
			               w    h    rw   rh   tx   ty
			        A4-P  210  297  180  277    0    0
			        A3-L  420  297  390  277  210    0
			        A2-L  594  420  564  400  384  123
			        A1-L  841  594  811  574  631  297
			        A0-L 1189  841 1159  821  979  544
			-->
			<g
				id="titleblock-structure"
				style="fill:none;stroke:#000000;stroke-width:0.35;stroke-linecap:miter;stroke-miterlimit:4">
				<rect width="180" height="38" x="20" y="227" />
				<path d="m 20,238 h 180" />
				<path d="m 80,227 v 11" />
				<path d="m 140,227 v 38" />
				<path d="m 160,227 v 11" />
				<path d="m 180,227 v 11" />
				<path d="m 140,254 h 60" />
				<path d="m 180,254 v 11" />
			</g>
			<g
				id="titleblock-text-non-editable"
				style="font-size:3px;text-anchor:start;fill:#000000;font-family:osifont"
				xml:space="preserve">
				<text x="21" y="230.5">Created by:</text>
				<text x="81" y="230.5">Title:</text>
				<text x="21" y="241.5">Supplementary information:</text>
				<text x="141" y="230.5">Size:</text>
				<text x="161" y="230.5">Sheet:</text>
				<text x="181" y="230.5">Scale:</text>
				<text x="141" y="241.5">Part number:</text>
				<text x="141" y="249.5">Drawing no.:</text>
				<text x="141" y="257.5">Date:</text>
				<text x="181" y="257.5">Revision:</text>
			</g>
			<g
				id="titleblock-text-editable"
				style="font-size:5px;text-anchor:middle;fill:#000000;font-family:osifont"
				xml:space="preserve">
				<text freecad:editable="AUTHOR NAME" x="50" y="236"><tspan>ELP305-Tribe B</tspan></text>
				<text freecad:editable="DRAWING TITLE" x="110" y="236"><tspan>DRYING ASSEMBLY</tspan></text>
				<text freecad:editable="SI-1" x="80" y="247"><tspan></tspan></text>
				<text freecad:editable="FreeCAD DRAWING" x="80" y="254"><tspan>Drying Assembly for Tribe B</tspan></text>
				<text freecad:editable="SI-3" x="80" y="261"><tspan></tspan></text>
				<text freecad:editable="FC-SI" x="150" y="236"><tspan>A4</tspan></text>
				<text freecad:editable="FC-SH" x="170" y="236"><tspan>1 / 1</tspan></text>
				<text freecad:editable="FC-SC" x="190" y="236"><tspan>1:20</tspan></text>
				<text freecad:editable="PN" x="180" y="244"><tspan>DA-V1.0</tspan></text>
				<text freecad:editable="DN" x="180" y="252"><tspan>1</tspan></text>
				<text freecad:editable="FC-DATE" x="160" y="263"><tspan>21/01/2024</tspan></text>
				<text freecad:editable="FC-REV" x="190" y="263"><tspan>1.0</tspan></text>
			</g>
			<!-- Set display:none to hide FreeCAD Logo -->
			<g
				style="display:inline"
				id="freecad-logo"
				transform="translate(128.5,254)"
				fill-rule="evenodd"
				stroke="#000"
				stroke-width="0.35"
				fill="none">
					<path d="m0.1524 0.15254v8.8549h1.9744v-3.4652h1.396v-1.3661h-1.396v-1.4745h3.4391v-2.5441l-5.4135-0.005z"/>
					<path d="m7.7927 3.4504-0.50715-0.176-0.48387-1.2366-0.76115 0.04-0.34718 1.2787-0.4859 0.23269-1.2119-0.53015-0.51188 0.56882 0.65892 1.1485-0.18006 0.50567-1.2366 0.48387 0.044064 0.76263 1.2787 0.34718 0.23269 0.4859-0.53421 1.2104 0.56882 0.51188 1.1485-0.65891 0.50973 0.18155 0.4798 1.2351 0.7667-0.04258 0.34311-1.2802 0.4859-0.23269 1.2145 0.5357 0.51188-0.56882-0.65891-1.1485 0.17748-0.51122 1.2351-0.4798-0.03851-0.76521-1.2802-0.34311-0.23269-0.4859 0.53163-1.216-0.56881-0.51184zm-0.5715 1.2244 0.23576 0.13679 0.20426 0.18519 0.16353 0.22101 0.11763 0.24572 0.06916 0.26489 0.01146 0.27146-0.03921 0.27139-0.08948 0.25764-0.14234 0.23834-0.17964 0.20167-0.22101 0.16353-0.24572 0.11763-0.26489 0.06916-0.27295 0.01553-0.2719-0.04-0.2576-0.089-0.2383-0.143-0.2002-0.183-0.165-0.217-0.1177-0.246-0.0676-0.269-0.0156-0.273 0.039206-0.2714 0.089484-0.25764 0.14085-0.23427 0.18113-0.20574 0.22101-0.16352 0.24572-0.11763 0.26895-0.06768 0.27147-0.01146 0.27139 0.03921 0.25764 0.08948z"/>
			</g>
		</g>
	</g>
<g id="Ortho_0_006"
   transform="rotate(-90,120,40) translate(120,40) scale(0.05,0.05)"
  >
<g   fill="none"
   stroke="rgb(0, 0, 0)"
   stroke-dasharray="0.2,0.1)"
   stroke-linecap="butt"
   stroke-linejoin="miter"
   stroke-width="3.000000"
   transform="scale(1,-1)"
  >
<path d="M0,-463.832 L0,-463.729  L0,-463.42  L0,-462.907  L0,-462.193  L0,-461.281  L0,-460.175  L0,-458.883  L0,-457.409  L0,-455.763  L0,-453.951  L0,-451.985  L0,-449.873  L0,-447.627  L0,-445.258 " /><path id= "2" d=" M 0 -445.258 L 0 -245.804 " />
<path d="M0,-245.804 L0,-247.69  L0,-249.455  L0,-251.097  L0,-252.609  L0,-253.989  L0,-255.234  L0,-256.339  L0,-257.303  L0,-258.123  L0,-258.796  L0,-259.322  L0,-259.698  L0,-259.925  L0,-260 " /><path d="M0,-260 L0,-259.952  L0,-259.807  L0,-259.565  L0,-259.228  L0,-258.796  L0,-258.268  L0,-257.647  L0,-256.933  L0,-256.127  L0,-255.231  L0,-254.245  L0,-253.173  L0,-252.014  L0,-250.772 " /><path id= "5" d=" M 0 -447.891 L 0 -250.772 " />
<path d="M0,-446.11 L0,-448.576  L0,-450.918  L0,-453.122  L0,-455.177  L0,-457.071  L0,-458.795  L0,-460.338  L0,-461.693  L0,-462.852  L0,-463.809  L0,-464.559  L0,-465.097  L0,-465.422  L0,-465.53 " /><path d="M0,-463.832 L0,-463.222  L0,-462.522  L0,-461.733  L0,-460.858  L0,-459.898  L0,-458.855  L0,-457.733  L0,-456.534  L0,-455.26  L0,-453.915  L0,-452.502  L0,-451.025  L0,-449.486  L0,-447.891 " /><path id= "8" d=" M 0 -60.5798 L 0 -446.11 " />
<path d="M0,0 L0,-0.453958  L0,-1.80553  L0,-4.02404  L0,-7.05912  L0,-10.8419  L0,-15.2865  L0,-20.292  L0,-25.7449  L0,-31.5214  L0,-37.4902  L0,-43.5161  L0,-49.4621  L0,-55.1934  L0,-60.5798 " /><path d="M0,-60 L0,-64.4786  L0,-68.9008  L0,-73.2112  L0,-77.3553  L0,-81.2813  L0,-84.9396  L0,-88.2843  L0,-91.2733  L0,-93.869  L0,-96.0388  L0,-97.7553  L0,-98.9971  L0,-99.7485  L0,-100 " /><path d="M0,-100 L0,-98.9971  L0,-96.0388  L0,-91.2733  L0,-84.9396  L0,-77.3553  L0,-68.9008  L0,-60  L0,-51.0992  L0,-42.6447  L0,-35.0604  L0,-28.7267  L0,-23.9612  L0,-21.0029  L0,-20 " /><path d="M0,-20 L0,-20.2515  L0,-21.0029  L0,-22.2447  L0,-23.9612  L0,-26.131  L0,-28.7267  L0,-31.7157  L0,-35.0604  L0,-38.7187  L0,-42.6447  L0,-46.7888  L0,-51.0992  L0,-55.5214  L0,-60 " /><path d="M0,-60 L0,-64.4786  L0,-68.9008  L0,-73.2112  L0,-77.3553  L0,-81.2813  L0,-84.9396  L0,-88.2843  L0,-91.2733  L0,-93.869  L0,-96.0388  L0,-97.7553  L0,-98.9971  L0,-99.7485  L0,-100 " /><path d="M0,-100 L0,-98.9971  L0,-96.0388  L0,-91.2733  L0,-84.9396  L0,-77.3553  L0,-68.9008  L0,-60  L0,-51.0992  L0,-42.6447  L0,-35.0604  L0,-28.7267  L0,-23.9612  L0,-21.0029  L0,-20 " /><path d="M0,-20 L0,-20.2515  L0,-21.0029  L0,-22.2447  L0,-23.9612  L0,-26.131  L0,-28.7267  L0,-31.7157  L0,-35.0604  L0,-38.7187  L0,-42.6447  L0,-46.7888  L0,-51.0992  L0,-55.5214  L0,-60 " /><path d="M0,-175 L0,-179.479  L0,-183.901  L0,-188.211  L0,-192.355  L0,-196.281  L0,-199.94  L0,-203.284  L0,-206.273  L0,-208.869  L0,-211.039  L0,-212.755  L0,-213.997  L0,-214.748  L0,-215 " /><path d="M0,-215 L0,-214.748  L0,-213.997  L0,-212.755  L0,-211.039  L0,-208.869  L0,-206.273  L0,-203.284  L0,-199.94  L0,-196.281  L0,-192.355  L0,-188.211  L0,-183.901  L0,-179.479  L0,-175 " /><path d="M0,-175 L0,-170.521  L0,-166.099  L0,-161.789  L0,-157.645  L0,-153.719  L0,-150.06  L0,-146.716  L0,-143.727  L0,-141.131  L0,-138.961  L0,-137.245  L0,-136.003  L0,-135.252  L0,-135 " /><path d="M0,-135 L0,-135.252  L0,-136.003  L0,-137.245  L0,-138.961  L0,-141.131  L0,-143.727  L0,-146.716  L0,-150.06  L0,-153.719  L0,-157.645  L0,-161.789  L0,-166.099  L0,-170.521  L0,-175 " /><path d="M0,-400 L0,-404.479  L0,-408.901  L0,-413.211  L0,-417.355  L0,-421.281  L0,-424.94  L0,-428.284  L0,-431.273  L0,-433.869  L0,-436.039  L0,-437.755  L0,-438.997  L0,-439.748  L0,-440 " /><path d="M0,-440 L0,-438.997  L0,-436.039  L0,-431.273  L0,-424.94  L0,-417.355  L0,-408.901  L0,-400  L0,-391.099  L0,-382.645  L0,-375.06  L0,-368.727  L0,-363.961  L0,-361.003  L0,-360 " /><path d="M0,-360 L0,-360.252  L0,-361.003  L0,-362.245  L0,-363.961  L0,-366.131  L0,-368.727  L0,-371.716  L0,-375.06  L0,-378.719  L0,-382.645  L0,-386.789  L0,-391.099  L0,-395.521  L0,-400 " /><path d="M0,-400 L0,-404.479  L0,-408.901  L0,-413.211  L0,-417.355  L0,-421.281  L0,-424.94  L0,-428.284  L0,-431.273  L0,-433.869  L0,-436.039  L0,-437.755  L0,-438.997  L0,-439.748  L0,-440 " /><path d="M0,-440 L0,-438.997  L0,-436.039  L0,-431.273  L0,-424.94  L0,-417.355  L0,-408.901  L0,-400  L0,-391.099  L0,-382.645  L0,-375.06  L0,-368.727  L0,-363.961  L0,-361.003  L0,-360 " /><path d="M0,-360 L0,-360.252  L0,-361.003  L0,-362.245  L0,-363.961  L0,-366.131  L0,-368.727  L0,-371.716  L0,-375.06  L0,-378.719  L0,-382.645  L0,-386.789  L0,-391.099  L0,-395.521  L0,-400 " /><path id= "26" d=" M 0 1.421e-14 L 40 1.421e-14 " />
<path d="M40,0 L40,-0.453958  L40,-1.80553  L40,-4.02404  L40,-7.05912  L40,-10.8419  L40,-15.2865  L40,-20.292  L40,-25.7449  L40,-31.5214  L40,-37.4902  L40,-43.5161  L40,-49.4621  L40,-55.1934  L40,-60.5798 " /><path id= "28" d=" M 40 -60.5798 L 40 -446.11 " />
<path d="M40,-463.832 L40,-463.729  L40,-463.42  L40,-462.907  L40,-462.193  L40,-461.281  L40,-460.175  L40,-458.883  L40,-457.409  L40,-455.763  L40,-453.951  L40,-451.985  L40,-449.873  L40,-447.627  L40,-445.258 " /><path d="M40,-446.11 L40,-448.576  L40,-450.918  L40,-453.122  L40,-455.177  L40,-457.071  L40,-458.795  L40,-460.338  L40,-461.693  L40,-462.852  L40,-463.809  L40,-464.559  L40,-465.097  L40,-465.422  L40,-465.53 " /><path d="M40,-463.832 L40,-463.222  L40,-462.522  L40,-461.733  L40,-460.858  L40,-459.898  L40,-458.855  L40,-457.733  L40,-456.534  L40,-455.26  L40,-453.915  L40,-452.502  L40,-451.025  L40,-449.486  L40,-447.891 " /><path id= "32" d=" M 40 -445.258 L 40 -245.804 " />
<path id= "33" d=" M 0 -245.804 L 40 -245.804 " />
<path id= "34" d=" M 40 -447.891 L 40 -250.772 " />
<path id= "35" d=" M 0 -250.772 L 40 -250.772 " />
<path d="M40,-245.804 L40,-247.69  L40,-249.455  L40,-251.097  L40,-252.609  L40,-253.989  L40,-255.234  L40,-256.339  L40,-257.303  L40,-258.123  L40,-258.796  L40,-259.322  L40,-259.698  L40,-259.925  L40,-260 " /><path d="M40,-260 L40,-259.952  L40,-259.807  L40,-259.565  L40,-259.228  L40,-258.796  L40,-258.268  L40,-257.647  L40,-256.933  L40,-256.127  L40,-255.231  L40,-254.245  L40,-253.173  L40,-252.014  L40,-250.772 " /><path d="M40,-60 L40,-64.4786  L40,-68.9008  L40,-73.2112  L40,-77.3553  L40,-81.2813  L40,-84.9396  L40,-88.2843  L40,-91.2733  L40,-93.869  L40,-96.0388  L40,-97.7553  L40,-98.9971  L40,-99.7485  L40,-100 " /><path d="M40,-100 L40,-98.9971  L40,-96.0388  L40,-91.2733  L40,-84.9396  L40,-77.3553  L40,-68.9008  L40,-60  L40,-51.0992  L40,-42.6447  L40,-35.0604  L40,-28.7267  L40,-23.9612  L40,-21.0029  L40,-20 " /><path d="M40,-20 L40,-20.2515  L40,-21.0029  L40,-22.2447  L40,-23.9612  L40,-26.131  L40,-28.7267  L40,-31.7157  L40,-35.0604  L40,-38.7187  L40,-42.6447  L40,-46.7888  L40,-51.0992  L40,-55.5214  L40,-60 " /><path d="M40,-60 L40,-64.4786  L40,-68.9008  L40,-73.2112  L40,-77.3553  L40,-81.2813  L40,-84.9396  L40,-88.2843  L40,-91.2733  L40,-93.869  L40,-96.0388  L40,-97.7553  L40,-98.9971  L40,-99.7485  L40,-100 " /><path d="M40,-100 L40,-98.9971  L40,-96.0388  L40,-91.2733  L40,-84.9396  L40,-77.3553  L40,-68.9008  L40,-60  L40,-51.0992  L40,-42.6447  L40,-35.0604  L40,-28.7267  L40,-23.9612  L40,-21.0029  L40,-20 " /><path d="M40,-20 L40,-20.2515  L40,-21.0029  L40,-22.2447  L40,-23.9612  L40,-26.131  L40,-28.7267  L40,-31.7157  L40,-35.0604  L40,-38.7187  L40,-42.6447  L40,-46.7888  L40,-51.0992  L40,-55.5214  L40,-60 " /><path d="M40,-175 L40,-179.479  L40,-183.901  L40,-188.211  L40,-192.355  L40,-196.281  L40,-199.94  L40,-203.284  L40,-206.273  L40,-208.869  L40,-211.039  L40,-212.755  L40,-213.997  L40,-214.748  L40,-215 " /><path d="M40,-215 L40,-214.748  L40,-213.997  L40,-212.755  L40,-211.039  L40,-208.869  L40,-206.273  L40,-203.284  L40,-199.94  L40,-196.281  L40,-192.355  L40,-188.211  L40,-183.901  L40,-179.479  L40,-175 " /><path d="M40,-175 L40,-170.521  L40,-166.099  L40,-161.789  L40,-157.645  L40,-153.719  L40,-150.06  L40,-146.716  L40,-143.727  L40,-141.131  L40,-138.961  L40,-137.245  L40,-136.003  L40,-135.252  L40,-135 " /><path d="M40,-135 L40,-135.252  L40,-136.003  L40,-137.245  L40,-138.961  L40,-141.131  L40,-143.727  L40,-146.716  L40,-150.06  L40,-153.719  L40,-157.645  L40,-161.789  L40,-166.099  L40,-170.521  L40,-175 " /><path d="M40,-400 L40,-404.479  L40,-408.901  L40,-413.211  L40,-417.355  L40,-421.281  L40,-424.94  L40,-428.284  L40,-431.273  L40,-433.869  L40,-436.039  L40,-437.755  L40,-438.997  L40,-439.748  L40,-440 " /><path d="M40,-440 L40,-438.997  L40,-436.039  L40,-431.273  L40,-424.94  L40,-417.355  L40,-408.901  L40,-400  L40,-391.099  L40,-382.645  L40,-375.06  L40,-368.727  L40,-363.961  L40,-361.003  L40,-360 " /><path d="M40,-360 L40,-360.252  L40,-361.003  L40,-362.245  L40,-363.961  L40,-366.131  L40,-368.727  L40,-371.716  L40,-375.06  L40,-378.719  L40,-382.645  L40,-386.789  L40,-391.099  L40,-395.521  L40,-400 " /><path d="M40,-400 L40,-404.479  L40,-408.901  L40,-413.211  L40,-417.355  L40,-421.281  L40,-424.94  L40,-428.284  L40,-431.273  L40,-433.869  L40,-436.039  L40,-437.755  L40,-438.997  L40,-439.748  L40,-440 " /><path d="M40,-440 L40,-438.997  L40,-436.039  L40,-431.273  L40,-424.94  L40,-417.355  L40,-408.901  L40,-400  L40,-391.099  L40,-382.645  L40,-375.06  L40,-368.727  L40,-363.961  L40,-361.003  L40,-360 " /><path d="M40,-360 L40,-360.252  L40,-361.003  L40,-362.245  L40,-363.961  L40,-366.131  L40,-368.727  L40,-371.716  L40,-375.06  L40,-378.719  L40,-382.645  L40,-386.789  L40,-391.099  L40,-395.521  L40,-400 " /><path id= "54" d=" M -2040 1.76131e-05 L -2040 -5.93257e-06 " />
<path id= "55" d=" M -2040 -445.258 L -2040 -245.804 " />
<path id= "56" d=" M -2040 -245.804 L -2040 -260 " />
<path id= "57" d=" M -2040 -260 L -2040 -250.772 " />
<path id= "58" d=" M -2040 -447.891 L -2040 -250.772 " />
<path id= "59" d=" M -2040 -446.11 L -2040 -465.53 " />
<path id= "60" d=" M -2040 -463.832 L -2040 -447.891 " />
<path id= "61" d=" M -2040 -60.5798 L -2040 -446.11 " />
<path id= "62" d=" M -2040 -5.93257e-06 L -2040 -60.5798 " />
<path id= "63" d=" M -2040 -60 L -2040 -100 " />
<path id= "64" d=" M -2040 -100 L -2040 -20 " />
<path id= "65" d=" M -2040 -20 L -2040 -60 " />
<path id= "66" d=" M -2040 -60 L -2040 -100 " />
<path id= "67" d=" M -2040 -100 L -2040 -20 " />
<path id= "68" d=" M -2040 -20 L -2040 -60 " />
<path id= "69" d=" M -2040 -175 L -2040 -215 " />
<path id= "70" d=" M -2040 -215 L -2040 -175 " />
<path id= "71" d=" M -2040 -175 L -2040 -135 " />
<path id= "72" d=" M -2040 -135 L -2040 -175 " />
<path id= "73" d=" M -2040 -400 L -2040 -440 " />
<path id= "74" d=" M -2040 -440 L -2040 -360 " />
<path id= "75" d=" M -2040 -360 L -2040 -400 " />
<path id= "76" d=" M -2040 -400 L -2040 -440 " />
<path id= "77" d=" M -2040 -440 L -2040 -360 " />
<path id= "78" d=" M -2040 -360 L -2040 -400 " />
<path id= "79" d=" M -2000 1.80345e-05 L -2000 -5.51115e-06 " />
<path id= "80" d=" M -2000 -9.99998 L -2000 -60.5798 " />
<path id= "81" d=" M -2000 -60.5798 L -2000 -446.11 " />
<path id= "82" d=" M -2000 -446.11 L -2000 -450 " />
<path id= "83" d=" M -2000 -450 L -2000 -447.891 " />
<path id= "84" d=" M -2000 -445.258 L -2000 -245.804 " />
<path id= "85" d=" M -2040 -245.804 L -2000 -245.804 " />
<path id= "86" d=" M -2000 -447.891 L -2000 -350 " />
<path id= "87" d=" M -2040 -250.772 L -2000 -250.772 " />
<path id= "88" d=" M -2000 -60 L -2000 -100 " />
<path id= "89" d=" M -2000 -100 L -2000 -20 " />
<path id= "90" d=" M -2000 -20 L -2000 -60 " />
<path id= "91" d=" M -2000 -60 L -2000 -100 " />
<path id= "92" d=" M -2000 -20 L -2000 -60 " />
<path id= "93" d=" M -2000 -175 L -2000 -135 " />
<path id= "94" d=" M -2000 -135 L -2000 -175 " />
<path id= "95" d=" M -2000 -400 L -2000 -440 " />
<path id= "96" d=" M -2000 -440 L -2000 -360 " />
<path id= "97" d=" M -2000 -360 L -2000 -400 " />
<path id= "98" d=" M -6.29578e-07 -350 L -6.14471e-07 -350.609 " />
<path id= "99" d=" M -4.73313e-07 -360 L 6.51556e-07 -450 " />
<path id= "100" d=" M 6.51556e-07 -450 L -3.59312e-08 -400 " />
<path id= "101" d=" M -2000 -400 L -2000 -350 " />
<path id= "102" d=" M -2000 -350 L -2000 -450 " />
<path id= "103" d=" M -2000 -450 L -2000 -400 " />
<path id= "104" d=" M -2.65472e-08 -400 L 5.23442e-07 -440 " />
<path id= "105" d=" M 5.23442e-07 -440 L -5.01464e-07 -360 " />
<path id= "106" d=" M -5.01464e-07 -360 L -2.65472e-08 -400 " />
<path id= "107" d=" M -2000 -400 L -2000 -360 " />
<path id= "108" d=" M -2000 -360 L -2000 -440 " />
<path id= "109" d=" M -2000 -440 L -2000 -400 " />
<path id= "110" d=" M 40 -400 L 40 -402.068 " />
<path id= "111" d=" M 40 -396.225 L 40 -360 " />
<path id= "112" d=" M 40 -360 L 40 -400 " />
<path id= "113" d=" M -2040 -400 L -2040 -360 " />
<path id= "114" d=" M -2040 -360 L -2040 -440 " />
<path id= "115" d=" M -2040 -440 L -2040 -400 " />
<path id= "116" d=" M -2000 -225 L -2000 -125 " />
<path id= "117" d=" M -1.65204e-06 -215 L -3.10616e-06 -135 " />
<path id= "118" d=" M -2000 -175 L -2000 -135 " />
<path id= "119" d=" M -2000 -135 L -2000 -215 " />
<path id= "120" d=" M -2000 -215 L -2000 -175 " />
<path id= "121" d=" M -1.68094e-06 -215 L -3.13506e-06 -135 " />
<path id= "122" d=" M -2040 -135 L -2040 -215 " />
<path id= "123" d=" M -2040 -215 L -2040 -175 " />
<path id= "124" d=" M 40 -175 L 40 -215 " />
<path id= "125" d=" M 40 -215 L 40 -135 " />
<path id= "126" d=" M 40 -135 L 40 -175 " />
<path id= "127" d=" M -4.66288e-07 -360 L 6.15248e-07 -450 " />
<path id= "128" d=" M 6.15248e-07 -450 L -2.29784e-22 -403.501 " />
<path id= "129" d=" M -2000 -350 L -2000 -450 " />
<path id= "130" d=" M -4.48159e-22 -402.801 L 4.92198e-07 -440 " />
<path id= "131" d=" M 4.92198e-07 -440 L -4.92198e-07 -360 " />
<path id= "132" d=" M -2000 -400 L -2000 -360 " />
<path id= "133" d=" M -2000 -360 L -2000 -440 " />
<path id= "134" d=" M -2000 -440 L -2000 -400 " />
<path id= "135" d=" M 40 -400 L 40 -402.801 " />
<path id= "136" d=" M 40 -397.199 L 40 -360 " />
<path id= "137" d=" M -2040 -400 L -2040 -360 " />
<path id= "138" d=" M -2040 -360 L -2040 -440 " />
<path id= "139" d=" M -2040 -440 L -2040 -400 " />
<path id= "140" d=" M -4.44474e-07 -20 L 6.36063e-07 -110 " />
<path id= "141" d=" M 6.36063e-07 -110 L -9.99101e-08 -60.5798 " />
<path id= "142" d=" M -2000 -10 L -2000 -110 " />
<path id= "143" d=" M -7.84495e-08 -60.5798 L 5.08851e-07 -100 " />
<path id= "144" d=" M 5.08851e-07 -100 L -5.0885e-07 -20 " />
<path id= "145" d=" M -2000 -60 L -2000 -20 " />
<path id= "146" d=" M -2000 -20 L -2000 -100 " />
<path id= "147" d=" M -2000 -100 L -2000 -60 " />
<path id= "148" d=" M 40 -60 L 40 -66.6533 " />
<path id= "149" d=" M 40 -60.5798 L 40 -20 " />
<path id= "150" d=" M -2040 -60 L -2040 -20 " />
<path id= "151" d=" M -2040 -20 L -2040 -100 " />
<path id= "152" d=" M -2040 -100 L -2040 -60 " />
<path id= "153" d=" M -2000 -60 L -2000 -100 " />
<path id= "154" d=" M -2000 -110 L -2000 -9.99998 " />
<path id= "155" d=" M -2000 -20 L -2000 -60 " />
<path id= "156" d=" M -3.84053e-06 -60 L -3.06098e-06 -110 " />
<path id= "157" d=" M -3.06098e-06 -110 L -4.56099e-06 -9.99998 " />
<path id= "158" d=" M -4.56105e-06 -9.99998 L -3.84053e-06 -60 " />
<path id= "159" d=" M -2000 -60 L -2000 -20 " />
<path id= "160" d=" M -2000 -20 L -2000 -100 " />
<path id= "161" d=" M -2000 -100 L -2000 -60 " />
<path id= "162" d=" M -3.83463e-06 -60 L -3.21099e-06 -100 " />
<path id= "163" d=" M -3.21099e-06 -100 L -4.41101e-06 -20 " />
<path id= "164" d=" M -4.41101e-06 -20 L -3.83463e-06 -60 " />
<path id= "165" d=" M -2040 -20 L -2040 -100 " />
<path id= "166" d=" M -2040 -100 L -2040 -60.5798 " />
<path id= "167" d=" M 40 -60 L 40 -100 " />
<path id= "168" d=" M 40 -100 L 40 -20 " />
<path id= "169" d=" M 40 -20 L 40 -60 " />
</g>
<g   fill="none"
   stroke="rgb(0, 0, 0)"
   stroke-dasharray="0.02,0.1)"
   stroke-linecap="butt"
   stroke-linejoin="miter"
   stroke-width="3.000000"
   transform="scale(1,-1)"
  >
<path id= "1" d=" M 40 -260 L 0 -260 " />
<path id= "2" d=" M 0 -100 L 40 -100 " />
<path id= "3" d=" M 0 -20 L 40 -20 " />
<path id= "4" d=" M 0 -100 L 40 -100 " />
<path id= "5" d=" M 0 -20 L 40 -20 " />
<path id= "6" d=" M 0 -215 L 40 -215 " />
<path id= "7" d=" M 0 -135 L 40 -135 " />
<path id= "8" d=" M 0 -440 L 40 -440 " />
<path id= "9" d=" M 0 -360 L 40 -360 " />
<path id= "10" d=" M 0 -440 L 40 -440 " />
<path id= "11" d=" M 0 -360 L 40 -360 " />
<path id= "12" d=" M -2000 -260 L -2040 -260 " />
<path id= "13" d=" M -2040 -100 L -2000 -100 " />
<path id= "14" d=" M -2040 -20 L -2000 -20 " />
<path id= "15" d=" M -2040 -100 L -2000 -100 " />
<path id= "16" d=" M -2040 -20 L -2000 -20 " />
<path id= "17" d=" M -2040 -215 L -2000 -215 " />
<path id= "18" d=" M -2040 -135 L -2000 -135 " />
<path id= "19" d=" M -2040 -440 L -2000 -440 " />
<path id= "20" d=" M -2040 -360 L -2000 -360 " />
<path id= "21" d=" M -2040 -440 L -2000 -440 " />
<path id= "22" d=" M -2040 -360 L -2000 -360 " />
<path id= "23" d=" M 0 -450 L 6.51556e-07 -450 " />
<path id= "24" d=" M -2000 -350 L -6.29578e-07 -350 " />
<path id= "25" d=" M 40 -360 L -5.01464e-07 -360 " />
<path id= "26" d=" M 40 -440 L 5.23442e-07 -440 " />
<path id= "27" d=" M -2040 -440 L -2000 -440 " />
<path id= "28" d=" M -2040 -360 L -2000 -360 " />
<path id= "29" d=" M -2000 -125 L -2000 -125 " />
<path id= "30" d=" M -2040 -215 L -2000 -215 " />
<path id= "31" d=" M -2040 -135 L -2000 -135 " />
<path id= "32" d=" M 40 -135 L 0 -135 " />
<path id= "33" d=" M 40 -215 L 0 -215 " />
<path id= "34" d=" M 0 -450 L 6.15248e-07 -450 " />
<path id= "35" d=" M 40 -360 L 0 -360 " />
<path id= "36" d=" M 40 -440 L 4.92198e-07 -440 " />
<path id= "37" d=" M -2040 -440 L -2000 -440 " />
<path id= "38" d=" M -2040 -360 L -2000 -360 " />
<path id= "39" d=" M 0 -110 L 6.36063e-07 -110 " />
<path id= "40" d=" M 40 -20 L 1.05879e-22 -20 " />
<path id= "41" d=" M 40 -100 L 5.0885e-07 -100 " />
<path id= "42" d=" M -2040 -100 L -2000 -100 " />
<path id= "43" d=" M -2040 -20 L -2000 -20 " />
<path id= "44" d=" M -2000 -9.99998 L -2000 -9.99998 " />
<path id= "45" d=" M -3.06098e-06 -110 L -2000 -110 " />
<path id= "46" d=" M -2040 -100 L -2000 -100 " />
<path id= "47" d=" M -2040 -20 L -2000 -20 " />
<path id= "48" d=" M 40 -20 L -8.47033e-22 -20 " />
<path id= "49" d=" M -4.44474e-07 -20 L -4.41101e-06 -20 " />
<path id= "50" d=" M 40 -100 L -3.21099e-06 -100 " />
</g>
<g   fill="none"
   stroke="rgb(0, 0, 0)"
   stroke-linecap="butt"
   stroke-linejoin="miter"
   stroke-width="7.000000"
   transform="scale(1,-1)"
  >
<path id= "1" d=" M 0 -463.832 L 40 -463.832 " />
<path id= "2" d=" M 0 -465.53 L 40 -465.53 " />
<path id= "3" d=" M -2040 1.76131e-05 L -2000 1.80345e-05 " />
<path id= "4" d=" M -2040 -463.832 L -2000 -463.832 " />
<path id= "5" d=" M -2040 -465.53 L -2000 -465.53 " />
<path id= "6" d=" M -2000 -260 L -2000 -260 " />
<path id= "7" d=" M -2000 -450 L 0 -450 " />
<path id= "8" d=" M 40 -440 L 40 -440 " />
<path id= "9" d=" M -3.31682e-06 -125 L -2000 -125 " />
<path id= "10" d=" M -1.49917e-06 -225 L -2000 -225 " />
<path id= "11" d=" M -2000 -215 L -2000 -215 " />
<path id= "12" d=" M 0 -135 L -3.13506e-06 -135 " />
<path id= "13" d=" M 0 -215 L -1.68094e-06 -215 " />
<path id= "14" d=" M -2000 -450 L 0 -450 " />
<path id= "15" d=" M -2000 -350 L -6.15247e-07 -350 " />
<path id= "16" d=" M 0 -360 L -4.92198e-07 -360 " />
<path id= "17" d=" M 40 -440 L 40 -440 " />
<path id= "18" d=" M -2000 -110 L 0 -110 " />
<path id= "19" d=" M -2000 -10 L -6.36063e-07 -9.99998 " />
<path id= "20" d=" M 1.05879e-22 -20 L -5.0885e-07 -20 " />
<path id= "21" d=" M 40 -100 L 40 -100 " />
<path id= "22" d=" M -2000 -100 L -2000 -100 " />
<path id= "23" d=" M -2000 -20 L -2000 -20 " />
<path id= "24" d=" M -4.56102e-06 -9.99995 L -2000 -9.99998 " />
<path id= "25" d=" M -8.47033e-22 -20 L -4.44474e-07 -20 " />
</g>
<g   fill="none"
   stroke="rgb(0, 0, 0)"
   stroke-linecap="butt"
   stroke-linejoin="miter"
   stroke-width="7.000000"
   transform="scale(1,-1)"
  >
<path d="M0,0 L0,-0.453958  L0,-1.80553  L0,-4.02404  L0,-7.05912  L0,-10.8419  L0,-15.2865  L0,-20.292  L0,-25.7449  L0,-31.5214  L0,-37.4902  L0,-43.5161  L0,-49.4621  L0,-55.1934  L0,-60.5798 " /><path id= "2" d=" M 0 -60.5798 L 0 -444.412 " />
<path d="M0,-444.412 L0,-446.878  L0,-449.22  L0,-451.424  L0,-453.479  L0,-455.373  L0,-457.097  L0,-458.64  L0,-459.995  L0,-461.154  L0,-462.111  L0,-462.861  L0,-463.4  L0,-463.724  L0,-463.832 " /><path d="M0,-465.53 L0,-465.521  L0,-465.495  L0,-465.451  L0,-465.39  L0,-465.312  L0,-465.216  L0,-465.103  L0,-464.973  L0,-464.825  L0,-464.661  L0,-464.479  L0,-464.28  L0,-464.065  L0,-463.832 " /><path id= "5" d=" M 0 1.421e-14 L 40 1.421e-14 " />
<path d="M40,0 L40,-0.453958  L40,-1.80553  L40,-4.02404  L40,-7.05912  L40,-10.8419  L40,-15.2865  L40,-20.292  L40,-25.7449  L40,-31.5214  L40,-37.4902  L40,-43.5161  L40,-49.4621  L40,-55.1934  L40,-60.5798 " /><path id= "7" d=" M 40 -60.5798 L 40 -444.412 " />
<path d="M40,-444.412 L40,-446.878  L40,-449.22  L40,-451.424  L40,-453.479  L40,-455.373  L40,-457.097  L40,-458.64  L40,-459.995  L40,-461.154  L40,-462.111  L40,-462.861  L40,-463.4  L40,-463.724  L40,-463.832 " /><path d="M40,-465.53 L40,-465.521  L40,-465.495  L40,-465.451  L40,-465.39  L40,-465.312  L40,-465.216  L40,-465.103  L40,-464.973  L40,-464.825  L40,-464.661  L40,-464.479  L40,-464.28  L40,-464.065  L40,-463.832 " /><path id= "10" d=" M -2040 -5.93257e-06 L -2040 -60.5798 " />
<path id= "11" d=" M -2040 -60.5798 L -2040 -444.412 " />
<path id= "12" d=" M -2040 -444.412 L -2040 -463.832 " />
<path id= "13" d=" M -2040 -463.832 L -2040 -445.258 " />
<path id= "14" d=" M -2040 -465.53 L -2040 -463.832 " />
<path id= "15" d=" M -2040 1.76131e-05 L -2040 -5.93257e-06 " />
<path id= "16" d=" M -2040 -20 L -2040 -20 " />
<path id= "17" d=" M -2000 -5.51115e-06 L -2000 -60.5798 " />
<path id= "18" d=" M -2040 -5.93257e-06 L -2000 -5.51115e-06 " />
<path id= "19" d=" M -2040 1.76131e-05 L -2000 1.80345e-05 " />
<path id= "20" d=" M -2000 1.80345e-05 L -2000 -9.99998 " />
<path id= "21" d=" M -2000 -60.5798 L -2000 -444.412 " />
<path id= "22" d=" M -2000 -444.412 L -2000 -463.832 " />
<path id= "23" d=" M -2000 -463.832 L -2000 -445.258 " />
<path id= "24" d=" M -2000 -450 L -2000 -465.53 " />
<path id= "25" d=" M -2000 -465.53 L -2000 -450 " />
<path id= "26" d=" M -2000 -350 L -2000 -250.772 " />
<path id= "27" d=" M -2000 -245.804 L -2000 -260 " />
<path id= "28" d=" M -2000 -260 L -2000 -250.772 " />
<path id= "29" d=" M -2000 -100 L -2000 -20 " />
<path id= "30" d=" M -2000 -175 L -2000 -215 " />
<path id= "31" d=" M -2000 -215 L -2000 -175 " />
<path id= "32" d=" M -2000 -400 L -2000 -440 " />
<path id= "33" d=" M -2000 -440 L -2000 -360 " />
<path id= "34" d=" M -2000 -360 L -2000 -400 " />
<path id= "35" d=" M -3.59312e-08 -400 L -6.29578e-07 -350 " />
<path id= "36" d=" M -6.14471e-07 -350.609 L -4.73313e-07 -360 " />
<path id= "37" d=" M 40 -402.068 L 40 -440 " />
<path id= "38" d=" M 40 -440 L 40 -396.225 " />
<path id= "39" d=" M 40 -360 L 40 -360 " />
<path id= "40" d=" M -2000 -175 L -2000 -225 " />
<path id= "41" d=" M -2000 -125 L -2000 -175 " />
<path id= "42" d=" M -2.45616e-06 -175 L -1.49917e-06 -225 " />
<path id= "43" d=" M -1.49917e-06 -225 L -1.65204e-06 -215 " />
<path id= "44" d=" M -3.10616e-06 -135 L -3.31683e-06 -125 " />
<path id= "45" d=" M -3.31683e-06 -125 L -2.45616e-06 -175 " />
<path id= "46" d=" M -2.44653e-06 -175 L -1.68094e-06 -215 " />
<path id= "47" d=" M -3.13506e-06 -135 L -2.44653e-06 -175 " />
<path id= "48" d=" M -2040 -175 L -2040 -135 " />
<path id= "49" d=" M -4.31818e-08 -400 L -6.15247e-07 -350 " />
<path id= "50" d=" M -6.15247e-07 -350 L -4.66288e-07 -360 " />
<path id= "51" d=" M -2.29784e-22 -403.501 L -4.31818e-08 -400 " />
<path id= "52" d=" M -2000 -400 L -2000 -350 " />
<path id= "53" d=" M -2000 -450 L -2000 -400 " />
<path id= "54" d=" M -3.45454e-08 -400 L -4.48159e-22 -402.801 " />
<path id= "55" d=" M -4.92198e-07 -360 L -3.45454e-08 -400 " />
<path id= "56" d=" M 40 -402.801 L 40 -440 " />
<path id= "57" d=" M 40 -440 L 40 -397.199 " />
<path id= "58" d=" M 40 -360 L 40 -400 " />
<path id= "59" d=" M -1.07294e-07 -60 L -6.36063e-07 -9.99998 " />
<path id= "60" d=" M -6.36063e-07 -9.99998 L -4.44474e-07 -20 " />
<path id= "61" d=" M -9.99101e-08 -60.5798 L -1.07294e-07 -60 " />
<path id= "62" d=" M -2000 -60 L -2000 -10 " />
<path id= "63" d=" M -2000 -110 L -2000 -60 " />
<path id= "64" d=" M -8.5835e-08 -60 L -7.84495e-08 -60.5798 " />
<path id= "65" d=" M -5.0885e-07 -20 L -8.5835e-08 -60 " />
<path id= "66" d=" M 40 -66.6533 L 40 -100 " />
<path id= "67" d=" M 40 -100 L 40 -60.5798 " />
<path id= "68" d=" M 40 -20 L 40 -60 " />
<path id= "69" d=" M -2000 -100 L -2000 -110 " />
<path id= "70" d=" M -2000 -9.99998 L -2000 -20 " />
<path id= "71" d=" M -4.56099e-06 -9.99998 L -4.56102e-06 -9.99995 " />
<path id= "72" d=" M -4.56102e-06 -9.99995 L -4.56105e-06 -9.99998 " />
<path id= "73" d=" M -2040 -60 L -2040 -20 " />
<path id= "74" d=" M -2040 -60.5798 L -2040 -60 " />
<path id= "75" d=" M 40 -20 L 40 -20 " />
</g>
</g>



<g id="Ortho_0_007"
   transform="rotate(90,50,140) translate(50,140) scale(0.05,0.05)"
  >
<g   fill="none"
   stroke="rgb(0, 0, 0)"
   stroke-dasharray="0.2,0.1)"
   stroke-linecap="butt"
   stroke-linejoin="miter"
   stroke-width="3.000000"
   transform="scale(1,-1)"
  >
<path id= "1" d=" M 0 -429.352 L 0 429.352 " />
<path d="M0,429.352 L0,433.831  L0,438.253  L0,442.564  L0,446.708  L0,450.634  L0,454.292  L0,457.637  L0,460.626  L0,463.221  L0,465.391  L0,467.108  L0,468.35  L0,469.101  L0,469.352 " /><path d="M0,-429.352 L0,-433.831  L0,-438.253  L0,-442.564  L0,-446.708  L0,-450.634  L0,-454.292  L0,-457.637  L0,-460.626  L0,-463.221  L0,-465.391  L0,-467.108  L0,-468.35  L0,-469.101  L0,-469.352 " /><path d="M0,-310 L0,-311.003  L0,-313.961  L0,-318.727  L0,-325.06  L0,-332.645  L0,-341.099  L0,-350  L0,-358.901  L0,-367.355  L0,-374.94  L0,-381.273  L0,-386.039  L0,-388.997  L0,-390 " /><path d="M0,-390 L0,-388.997  L0,-386.039  L0,-381.273  L0,-374.94  L0,-367.355  L0,-358.901  L0,-350  L0,-341.099  L0,-332.645  L0,-325.06  L0,-318.727  L0,-313.961  L0,-311.003  L0,-310 " /><path d="M0,310 L0,311.003  L0,313.961  L0,318.727  L0,325.06  L0,332.645  L0,341.099  L0,350  L0,358.901  L0,367.355  L0,374.94  L0,381.273  L0,386.039  L0,388.997  L0,390 " /><path d="M0,390 L0,388.997  L0,386.039  L0,381.273  L0,374.94  L0,367.355  L0,358.901  L0,350  L0,341.099  L0,332.645  L0,325.06  L0,318.727  L0,313.961  L0,311.003  L0,310 " /><path d="M0,40 L0,38.9971  L0,36.0388  L0,31.2733  L0,24.9396  L0,17.3553  L0,8.90084  L0,1.77636e-15  L0,-8.90084  L0,-17.3553  L0,-24.9396  L0,-31.2733  L0,-36.0388  L0,-38.9971  L0,-40 " /><path d="M0,-40 L0,-38.9971  L0,-36.0388  L0,-31.2733  L0,-24.9396  L0,-17.3553  L0,-8.90084  L0,-7.10543e-15  L0,8.90084  L0,17.3553  L0,24.9396  L0,31.2733  L0,36.0388  L0,38.9971  L0,40 " /><path d="M0,-160 L0,-161.003  L0,-163.961  L0,-168.727  L0,-175.06  L0,-182.645  L0,-191.099  L0,-200  L0,-208.901  L0,-217.355  L0,-224.94  L0,-231.273  L0,-236.039  L0,-238.997  L0,-240 " /><path d="M0,-240 L0,-238.997  L0,-236.039  L0,-231.273  L0,-224.94  L0,-217.355  L0,-208.901  L0,-200  L0,-191.099  L0,-182.645  L0,-175.06  L0,-168.727  L0,-163.961  L0,-161.003  L0,-160 " /><path d="M0,160 L0,161.003  L0,163.961  L0,168.727  L0,175.06  L0,182.645  L0,191.099  L0,200  L0,208.901  L0,217.355  L0,224.94  L0,231.273  L0,236.039  L0,238.997  L0,240 " /><path d="M0,240 L0,238.997  L0,236.039  L0,231.273  L0,224.94  L0,217.355  L0,208.901  L0,200  L0,191.099  L0,182.645  L0,175.06  L0,168.727  L0,163.961  L0,161.003  L0,160 " /><path id= "14" d=" M 40 -429.352 L 40 429.352 " />
<path d="M40,429.352 L40,433.831  L40,438.253  L40,442.564  L40,446.708  L40,450.634  L40,454.292  L40,457.637  L40,460.626  L40,463.221  L40,465.391  L40,467.108  L40,468.35  L40,469.101  L40,469.352 " /><path d="M40,-429.352 L40,-433.831  L40,-438.253  L40,-442.564  L40,-446.708  L40,-450.634  L40,-454.292  L40,-457.637  L40,-460.626  L40,-463.221  L40,-465.391  L40,-467.108  L40,-468.35  L40,-469.101  L40,-469.352 " /><path id= "17" d=" M 40 -310 L 0 -310 " />
<path d="M40,-310 L40,-311.003  L40,-313.961  L40,-318.727  L40,-325.06  L40,-332.645  L40,-341.099  L40,-350  L40,-358.901  L40,-367.355  L40,-374.94  L40,-381.273  L40,-386.039  L40,-388.997  L40,-390 " /><path d="M40,-390 L40,-388.997  L40,-386.039  L40,-381.273  L40,-374.94  L40,-367.355  L40,-358.901  L40,-350  L40,-341.099  L40,-332.645  L40,-325.06  L40,-318.727  L40,-313.961  L40,-311.003  L40,-310 " /><path d="M40,310 L40,311.003  L40,313.961  L40,318.727  L40,325.06  L40,332.645  L40,341.099  L40,350  L40,358.901  L40,367.355  L40,374.94  L40,381.273  L40,386.039  L40,388.997  L40,390 " /><path d="M40,390 L40,388.997  L40,386.039  L40,381.273  L40,374.94  L40,367.355  L40,358.901  L40,350  L40,341.099  L40,332.645  L40,325.06  L40,318.727  L40,313.961  L40,311.003  L40,310 " /><path id= "22" d=" M 40 310 L 0 310 " />
<path d="M40,40 L40,38.9971  L40,36.0388  L40,31.2733  L40,24.9396  L40,17.3553  L40,8.90084  L40,1.77636e-15  L40,-8.90084  L40,-17.3553  L40,-24.9396  L40,-31.2733  L40,-36.0388  L40,-38.9971  L40,-40 " /><path id= "24" d=" M 40 40 L 0 40 " />
<path id= "25" d=" M 40 -40 L 0 -40 " />
<path d="M40,-40 L40,-38.9971  L40,-36.0388  L40,-31.2733  L40,-24.9396  L40,-17.3553  L40,-8.90084  L40,-7.10543e-15  L40,8.90084  L40,17.3553  L40,24.9396  L40,31.2733  L40,36.0388  L40,38.9971  L40,40 " /><path id= "27" d=" M 40 -160 L 0 -160 " />
<path d="M40,-160 L40,-161.003  L40,-163.961  L40,-168.727  L40,-175.06  L40,-182.645  L40,-191.099  L40,-200  L40,-208.901  L40,-217.355  L40,-224.94  L40,-231.273  L40,-236.039  L40,-238.997  L40,-240 " /><path d="M40,-240 L40,-238.997  L40,-236.039  L40,-231.273  L40,-224.94  L40,-217.355  L40,-208.901  L40,-200  L40,-191.099  L40,-182.645  L40,-175.06  L40,-168.727  L40,-163.961  L40,-161.003  L40,-160 " /><path d="M40,160 L40,161.003  L40,163.961  L40,168.727  L40,175.06  L40,182.645  L40,191.099  L40,200  L40,208.901  L40,217.355  L40,224.94  L40,231.273  L40,236.039  L40,238.997  L40,240 " /><path d="M40,240 L40,238.997  L40,236.039  L40,231.273  L40,224.94  L40,217.355  L40,208.901  L40,200  L40,191.099  L40,182.645  L40,175.06  L40,168.727  L40,163.961  L40,161.003  L40,160 " /><path id= "32" d=" M 40 160 L 0 160 " />
<path id= "33" d=" M -2040 -429.352 L -2040 429.352 " />
<path id= "34" d=" M -2040 -390 L -2040 -385.098 " />
<path id= "35" d=" M -2040 -314.863 L -2040 -310 " />
<path id= "36" d=" M -2040 -40 L -2040 -39.9301 " />
<path id= "37" d=" M -2040 39.8614 L -2040 40 " />
<path id= "38" d=" M -2040 -240 L -2040 -239.522 " />
<path id= "39" d=" M -2040 -160.662 L -2040 -160 " />
<path id= "40" d=" M -2000 -429.352 L -2000 429.352 " />
<path id= "41" d=" M -2000 429.352 L -2000 469.352 " />
<path id= "42" d=" M -2000 -429.352 L -2000 -469.352 " />
<path id= "43" d=" M -2000 -310 L -2040 -310 " />
<path id= "44" d=" M -2000 -310 L -2000 -390 " />
<path id= "45" d=" M -2000 -390 L -2000 -310 " />
<path id= "46" d=" M -2000 310 L -2000 390 " />
<path id= "47" d=" M -2000 390 L -2000 310 " />
<path id= "48" d=" M -2000 310 L -2040 310 " />
<path id= "49" d=" M -2000 40 L -2000 -40 " />
<path id= "50" d=" M -2000 40 L -2040 40 " />
<path id= "51" d=" M -2000 -40 L -2040 -40 " />
<path id= "52" d=" M -2000 -40 L -2000 40 " />
<path id= "53" d=" M -2000 -160 L -2040 -160 " />
<path id= "54" d=" M -2000 -160 L -2000 -240 " />
<path id= "55" d=" M -2000 -240 L -2000 -160 " />
<path id= "56" d=" M -2000 160 L -2000 240 " />
<path id= "57" d=" M -2000 240 L -2000 160 " />
<path id= "58" d=" M -2000 160 L -2040 160 " />
<path id= "59" d=" M -3.59312e-08 -150 L 5.7909e-08 -250 " />
<path id= "60" d=" M 5.7909e-08 -250 L 7.11375e-23 -150.078 " />
<path id= "61" d=" M -2000 -150 L -2000 -150 " />
<path id= "62" d=" M -2000 -150 L -2000 -250 " />
<path id= "63" d=" M -2000 -250 L -2000 -150 " />
<path id= "64" d=" M -2.65472e-08 -160 L 4.8525e-08 -240 " />
<path id= "65" d=" M 4.8525e-08 -240 L -2.65472e-08 -160 " />
<path id= "66" d=" M -2000 -160 L -2000 -240 " />
<path id= "67" d=" M -2000 -240 L -2000 -160 " />
<path id= "68" d=" M -2.65472e-08 -160 L 40 -160 " />
<path id= "69" d=" M 40 -160 L 40 -160.054 " />
<path id= "70" d=" M 40 -240 L 40 -160 " />
<path id= "71" d=" M -2000 -160 L -2040 -160 " />
<path id= "72" d=" M -2000 50 L -2000 -50 " />
<path id= "73" d=" M -2000 -50 L -2000 50 " />
<path id= "74" d=" M -2000 50 L -2000 50 " />
<path id= "75" d=" M -2.35984e-06 -50 L -2.45616e-06 50 " />
<path id= "76" d=" M -2000 40 L -2000 -40 " />
<path id= "77" d=" M -2000 -40 L -2000 40 " />
<path id= "78" d=" M -2.44653e-06 40 L -2.36947e-06 -40 " />
<path id= "79" d=" M -2.36947e-06 -40 L -2.44653e-06 40 " />
<path id= "80" d=" M -2000 40 L -2040 40 " />
<path id= "81" d=" M -2.44653e-06 40 L -1.90123e-06 40 " />
<path id= "82" d=" M 0 40 L 40 40 " />
<path id= "83" d=" M 40 40 L 40 -40 " />
<path id= "84" d=" M 40 -40 L 40 40 " />
<path id= "85" d=" M -4.31818e-08 250 L 4.31823e-08 150 " />
<path id= "86" d=" M 4.31823e-08 150 L 3.45934e-22 249.877 " />
<path id= "87" d=" M -2000 250 L -2000 150 " />
<path id= "88" d=" M -3.45454e-08 240 L 3.45459e-08 160 " />
<path id= "89" d=" M 3.45459e-08 160 L -3.45454e-08 240 " />
<path id= "90" d=" M -2000 240 L -2000 160 " />
<path id= "91" d=" M -2000 160 L -2000 240 " />
<path id= "92" d=" M -3.45454e-08 240 L 40 240 " />
<path id= "93" d=" M 40 240 L 40 239.902 " />
<path id= "94" d=" M 40 160 L 40 240 " />
<path id= "95" d=" M -2000 240 L -2040 240 " />
<path id= "96" d=" M -2040 240 L -2040 239.885 " />
<path id= "97" d=" M -2040 160.19 L -2040 160 " />
<path id= "98" d=" M -1.07294e-07 400 L 1.07294e-07 300 " />
<path id= "99" d=" M 1.07294e-07 300 L 3.54464e-22 399.303 " />
<path id= "100" d=" M -2000 390 L -2000 310 " />
<path id= "101" d=" M -8.5835e-08 390 L 8.58354e-08 310 " />
<path id= "102" d=" M 8.58354e-08 310 L -8.5835e-08 390 " />
<path id= "103" d=" M -2000 390 L -2000 310 " />
<path id= "104" d=" M -8.5835e-08 390 L 40 390 " />
<path id= "105" d=" M 40 390 L 40 389.443 " />
<path id= "106" d=" M 40 310 L 40 390 " />
<path id= "107" d=" M -2000 390 L -2040 390 " />
<path id= "108" d=" M -2040 390 L -2040 310 " />
<path id= "109" d=" M -2040 310 L -2040 390 " />
<path id= "110" d=" M -2000 -300 L -2000 -400 " />
<path id= "111" d=" M -2000 -400 L -2000 -300 " />
<path id= "112" d=" M -2000 -300 L -2000 -300 " />
<path id= "113" d=" M -3.78147e-06 -400 L -3.84053e-06 -300 " />
<path id= "114" d=" M -2000 -310 L -2000 -390 " />
<path id= "115" d=" M -2000 -390 L -2000 -310 " />
<path id= "116" d=" M -3.83463e-06 -310 L -3.78737e-06 -390 " />
<path id= "117" d=" M -3.78737e-06 -390 L -3.83463e-06 -310 " />
<path id= "118" d=" M -2000 -310 L -2040 -310 " />
<path id= "119" d=" M -3.83463e-06 -310 L -3.38462e-06 -310 " />
<path id= "120" d=" M 0 -310 L 40 -310 " />
<path id= "121" d=" M 40 -310 L 40 -390 " />
<path id= "122" d=" M 40 -390 L 40 -310 " />
</g>
<g   fill="none"
   stroke="rgb(0, 0, 0)"
   stroke-dasharray="0.02,0.1)"
   stroke-linecap="butt"
   stroke-linejoin="miter"
   stroke-width="3.000000"
   transform="scale(1,-1)"
  >
<path id= "1" d=" M 0 -390 L 40 -390 " />
<path id= "2" d=" M 0 390 L 40 390 " />
<path id= "3" d=" M 0 -240 L 40 -240 " />
<path id= "4" d=" M 0 240 L 40 240 " />
<path id= "5" d=" M -2040 -390 L -2000 -390 " />
<path id= "6" d=" M -2040 -310 L -2000 -310 " />
<path id= "7" d=" M -2040 310 L -2000 310 " />
<path id= "8" d=" M -2040 390 L -2000 390 " />
<path id= "9" d=" M -2040 -40 L -2000 -40 " />
<path id= "10" d=" M -2040 40 L -2000 40 " />
<path id= "11" d=" M -2040 -240 L -2000 -240 " />
<path id= "12" d=" M -2040 -160 L -2000 -160 " />
<path id= "13" d=" M -2040 160 L -2000 160 " />
<path id= "14" d=" M -2040 240 L -2000 240 " />
<path id= "15" d=" M -2000 -250 L -2000 -250 " />
<path id= "16" d=" M 40 -240 L 4.8525e-08 -240 " />
<path id= "17" d=" M -2040 -240 L -2000 -240 " />
<path id= "18" d=" M -2000 -50 L -2000 -50 " />
<path id= "19" d=" M -2040 -40 L -2000 -40 " />
<path id= "20" d=" M 40 -40 L 0 -40 " />
<path id= "21" d=" M -1.82418e-06 -40 L -2.36947e-06 -40 " />
<path id= "22" d=" M 40 160 L 3.45459e-08 160 " />
<path id= "23" d=" M -2040 160 L -2000 160 " />
<path id= "24" d=" M 40 310 L 8.58354e-08 310 " />
<path id= "25" d=" M -2040 310 L -2000 310 " />
<path id= "26" d=" M -2000 -300 L -2000 -300 " />
<path id= "27" d=" M -2000 -400 L -2000 -400 " />
<path id= "28" d=" M -2040 -390 L -2000 -390 " />
<path id= "29" d=" M -2040 -310 L -2000 -310 " />
<path id= "30" d=" M 40 -390 L 0 -390 " />
<path id= "31" d=" M -3.33736e-06 -390 L -3.78737e-06 -390 " />
</g>
<g   fill="none"
   stroke="rgb(0, 0, 0)"
   stroke-linecap="butt"
   stroke-linejoin="miter"
   stroke-width="7.000000"
   transform="scale(1,-1)"
  >
<path id= "1" d=" M 0 469.352 L 40 469.352 " />
<path id= "2" d=" M 0 -469.352 L 40 -469.352 " />
<path id= "3" d=" M -2040 469.352 L -2000 469.352 " />
<path id= "4" d=" M -2040 -469.352 L -2000 -469.352 " />
<path id= "5" d=" M -2040 -390 L -2040 -390 " />
<path id= "6" d=" M -2040 -310 L -2040 -310 " />
<path id= "7" d=" M -2040 310 L -2040 310 " />
<path id= "8" d=" M -2040 390 L -2040 390 " />
<path id= "9" d=" M -2040 -40 L -2040 -40 " />
<path id= "10" d=" M -2040 -240 L -2040 -240 " />
<path id= "11" d=" M -2040 160 L -2040 160 " />
<path id= "12" d=" M -2040 240 L -2040 240 " />
<path id= "13" d=" M -2000 -250 L 5.7909e-08 -250 " />
<path id= "14" d=" M -2.35984e-06 -50 L -2000 -50 " />
<path id= "15" d=" M 0 -40 L -1.82418e-06 -40 " />
<path id= "16" d=" M -2000 150 L 4.31823e-08 150 " />
<path id= "17" d=" M -2040 160 L -2040 160 " />
<path id= "18" d=" M -2000 300 L 1.07294e-07 300 " />
<path id= "19" d=" M -2000 310 L -2000 310 " />
<path id= "20" d=" M -3.84053e-06 -300 L -2000 -300 " />
<path id= "21" d=" M -3.78147e-06 -400 L -2000 -400 " />
<path id= "22" d=" M -2040 -390 L -2040 -390 " />
<path id= "23" d=" M -2040 -310 L -2040 -310 " />
<path id= "24" d=" M 0 -390 L -3.33736e-06 -390 " />
</g>
<g   fill="none"
   stroke="rgb(0, 0, 0)"
   stroke-linecap="butt"
   stroke-linejoin="miter"
   stroke-width="7.000000"
   transform="scale(1,-1)"
  >
<path d="M0,469.352 L0,469.323  L0,469.233  L0,469.084  L0,468.877  L0,468.61  L0,468.284  L0,467.901  L0,467.46  L0,466.963  L0,466.409  L0,465.8  L0,465.137  L0,464.421  L0,463.652 " /><path id= "2" d=" M 0 463.652 L 0 233.353 " />
<path d="M0,233.353 L0,230.009  L0,226.011  L0,221.444  L0,216.405  L0,210.999  L0,205.341  L0,199.55  L0,193.749  L0,188.06  L0,182.603  L0,177.493  L0,172.838  L0,168.737  L0,165.276 " /><path id= "4" d=" M 0 165.276 L 0 38.755 " />
<path d="M0,38.755 L0,34.4666  L0,29.8973  L0,25.0844  L0,20.0671  L0,14.8862  L0,9.5841  L0,4.20386  L0,-1.21063  L0,-6.61526  L0,-11.966  L0,-17.2192  L0,-22.3321  L0,-27.263  L0,-31.9718 " /><path id= "6" d=" M 0 -164.868 L 0 -31.9718 " />
<path d="M0,-232.334 L0,-229.04  L0,-225.11  L0,-220.623  L0,-215.673  L0,-210.36  L0,-204.794  L0,-199.09  L0,-193.364  L0,-187.733  L0,-182.314  L0,-177.218  L0,-172.55  L0,-168.405  L0,-164.868 " /><path id= "8" d=" M 0 -463.652 L 0 -232.334 " />
<path d="M0,-469.352 L0,-469.323  L0,-469.233  L0,-469.084  L0,-468.877  L0,-468.61  L0,-468.284  L0,-467.901  L0,-467.46  L0,-466.963  L0,-466.409  L0,-465.8  L0,-465.137  L0,-464.421  L0,-463.652 " /><path d="M40,469.352 L40,469.323  L40,469.233  L40,469.084  L40,468.877  L40,468.61  L40,468.284  L40,467.901  L40,467.46  L40,466.963  L40,466.409  L40,465.8  L40,465.137  L40,464.421  L40,463.652 " /><path d="M40,-469.352 L40,-469.323  L40,-469.233  L40,-469.084  L40,-468.877  L40,-468.61  L40,-468.284  L40,-467.901  L40,-467.46  L40,-466.963  L40,-466.409  L40,-465.8  L40,-465.137  L40,-464.421  L40,-463.652 " /><path id= "12" d=" M 40 463.652 L 40 233.353 " />
<path id= "13" d=" M 40 -463.652 L 40 -232.334 " />
<path d="M40,233.353 L40,230.009  L40,226.011  L40,221.444  L40,216.405  L40,210.999  L40,205.341  L40,199.55  L40,193.749  L40,188.06  L40,182.603  L40,177.493  L40,172.838  L40,168.737  L40,165.276 " /><path d="M40,-232.334 L40,-229.04  L40,-225.11  L40,-220.623  L40,-215.673  L40,-210.36  L40,-204.794  L40,-199.09  L40,-193.364  L40,-187.733  L40,-182.314  L40,-177.218  L40,-172.55  L40,-168.405  L40,-164.868 " /><path id= "16" d=" M 40 165.276 L 40 38.755 " />
<path id= "17" d=" M 0 38.755 L 40 38.755 " />
<path id= "18" d=" M 40 -164.868 L 40 -31.9718 " />
<path id= "19" d=" M 0 -31.9718 L 40 -31.9718 " />
<path d="M40,38.755 L40,34.4666  L40,29.8973  L40,25.0844  L40,20.0671  L40,14.8862  L40,9.5841  L40,4.20386  L40,-1.21063  L40,-6.61526  L40,-11.966  L40,-17.2192  L40,-22.3321  L40,-27.263  L40,-31.9718 " /><path id= "21" d=" M -2040 429.352 L -2040 469.352 " />
<path id= "22" d=" M -2040 469.352 L -2040 463.652 " />
<path id= "23" d=" M -2040 463.652 L -2040 233.353 " />
<path id= "24" d=" M -2040 233.353 L -2040 165.276 " />
<path id= "25" d=" M -2040 165.276 L -2040 38.755 " />
<path id= "26" d=" M -2040 38.755 L -2040 -31.9718 " />
<path id= "27" d=" M -2040 -164.868 L -2040 -31.9718 " />
<path id= "28" d=" M -2040 -232.334 L -2040 -164.868 " />
<path id= "29" d=" M -2040 -463.652 L -2040 -232.334 " />
<path id= "30" d=" M -2040 -429.352 L -2040 -469.352 " />
<path id= "31" d=" M -2040 -469.352 L -2040 -463.652 " />
<path id= "32" d=" M -2040 -310 L -2040 -390 " />
<path id= "33" d=" M -2040 -385.098 L -2040 -314.863 " />
<path id= "34" d=" M -2040 -310 L -2040 -310 " />
<path id= "35" d=" M -2040 310 L -2040 390 " />
<path id= "36" d=" M -2040 390 L -2040 310 " />
<path id= "37" d=" M -2040 40 L -2040 -40 " />
<path id= "38" d=" M -2040 -40 L -2040 -40 " />
<path id= "39" d=" M -2040 -39.9301 L -2040 39.8614 " />
<path id= "40" d=" M -2040 -160 L -2040 -240 " />
<path id= "41" d=" M -2040 -240 L -2040 -240 " />
<path id= "42" d=" M -2040 -239.522 L -2040 -160.662 " />
<path id= "43" d=" M -2040 160 L -2040 240 " />
<path id= "44" d=" M -2040 240 L -2040 160 " />
<path id= "45" d=" M -2000 469.352 L -2000 463.652 " />
<path id= "46" d=" M -2000 -469.352 L -2000 -463.652 " />
<path id= "47" d=" M -2000 463.652 L -2000 233.353 " />
<path id= "48" d=" M -2000 -463.652 L -2000 -232.334 " />
<path id= "49" d=" M -2000 233.353 L -2000 165.276 " />
<path id= "50" d=" M -2000 -232.334 L -2000 -164.868 " />
<path id= "51" d=" M -2000 165.276 L -2000 38.755 " />
<path id= "52" d=" M -2040 38.755 L -2000 38.755 " />
<path id= "53" d=" M -2000 -164.868 L -2000 -31.9718 " />
<path id= "54" d=" M -2040 -31.9718 L -2000 -31.9718 " />
<path id= "55" d=" M -2000 38.755 L -2000 -31.9718 " />
<path id= "56" d=" M -2040 -310 L -2040 -310 " />
<path id= "57" d=" M -2040 310 L -2040 310 " />
<path id= "58" d=" M -2040 -40 L -2040 -40 " />
<path id= "59" d=" M -2040 160 L -2040 160 " />
<path id= "60" d=" M 7.11375e-23 -150.078 L -3.59312e-08 -150 " />
<path id= "61" d=" M -3.59312e-08 -150 L -2000 -150 " />
<path id= "62" d=" M 40 -160.054 L 40 -240 " />
<path id= "63" d=" M -2040 -160 L -2040 -160 " />
<path id= "64" d=" M -2040 -160 L -2040 -240 " />
<path id= "65" d=" M -2040 -240 L -2040 -160 " />
<path id= "66" d=" M -2000 50 L -2.45616e-06 50 " />
<path id= "67" d=" M -2.45616e-06 50 L -2.35984e-06 -50 " />
<path id= "68" d=" M -2040 40 L -2040 40 " />
<path id= "69" d=" M -2040 40 L -2040 -40 " />
<path id= "70" d=" M -2040 -40 L -2040 40 " />
<path id= "71" d=" M -1.90123e-06 40 L 0 40 " />
<path id= "72" d=" M 3.45934e-22 249.877 L -4.31818e-08 250 " />
<path id= "73" d=" M -4.31818e-08 250 L -2000 250 " />
<path id= "74" d=" M -2000 150 L -2000 250 " />
<path id= "75" d=" M 40 239.902 L 40 160 " />
<path id= "76" d=" M -2040 240 L -2040 240 " />
<path id= "77" d=" M -2040 239.885 L -2040 160.19 " />
<path id= "78" d=" M -2040 160 L -2040 240 " />
<path id= "79" d=" M 3.54464e-22 399.303 L -1.07294e-07 400 " />
<path id= "80" d=" M -1.07294e-07 400 L -2000 400 " />
<path id= "81" d=" M -2000 400 L -2000 390 " />
<path id= "82" d=" M -2000 310 L -2000 300 " />
<path id= "83" d=" M -2000 300 L -2000 400 " />
<path id= "84" d=" M -2000 310 L -2000 390 " />
<path id= "85" d=" M 40 389.443 L 40 310 " />
<path id= "86" d=" M -2000 390 L -2000 390 " />
<path id= "87" d=" M -2000 -300 L -3.84053e-06 -300 " />
<path id= "88" d=" M -3.84053e-06 -300 L -3.78147e-06 -400 " />
<path id= "89" d=" M -2040 -310 L -2040 -310 " />
<path id= "90" d=" M -2040 -310 L -2040 -390 " />
<path id= "91" d=" M -2040 -390 L -2040 -310 " />
<path id= "92" d=" M -3.38462e-06 -310 L 0 -310 " />
</g>
</g>



<g id="Ortho_0_008"
   transform="rotate(0,220,120) translate(220,120) scale(0.05,0.05)"
  >
<g   fill="none"
   stroke="rgb(0, 0, 0)"
   stroke-dasharray="0.2,0.1)"
   stroke-linecap="butt"
   stroke-linejoin="miter"
   stroke-width="3.000000"
   transform="scale(1,-1)"
  >
<path id= "1" d=" M -429.352 0 L 429.352 0 " />
<path d="M429.352 0 A40 40 0 0 1 463.652 60.5798" /><path id= "3" d=" M 463.652 60.5798 L 233.353 444.412 " />
<path d="M233.353 444.412 A40 40 0 0 1 165.276 445.258" /><path id= "5" d=" M 165.276 445.258 L 38.755 245.804 " />
<path d="M38.755 245.804 A60 60 0 0 1 -31.9718 250.772" /><path id= "7" d=" M -164.868 447.891 L -31.9718 250.772 " />
<path d="M-232.334 446.11 A40 40 0 0 0 -164.868 447.891" /><path id= "9" d=" M -463.652 60.5798 L -232.334 446.11 " />
<path d="M-429.352 0 A40 40 0 0 0 -463.652 60.5798" /><circle cx ="-350" cy ="60" r ="40" /><circle cx ="350" cy ="60" r ="40" /><path d="M40 175 A40 40 0 0 1 -40 175" /><path d="M-40 175 A40 40 0 0 1 40 175" /><circle cx ="-200" cy ="400" r ="40" /><circle cx ="200" cy ="400" r ="40" /><path id= "17" d=" M -429.352 -1.76131e-05 L 429.352 5.93257e-06 " />
<path d="M429.352 5.93257e-06 A40 40 -176.649 0 1 463.652 60.5798" />
<path id= "19" d=" M 463.652 60.5798 L 233.353 444.412 " />
<path d="M233.353 444.412 A40 40 -176.649 0 1 165.276 445.258" />
<path id= "21" d=" M 165.276 445.258 L 38.755 245.804 " />
<path d="M38.755 245.804 A60 60 -176.649 0 1 -31.9718 250.772" />
<path id= "23" d=" M -164.868 447.891 L -31.9718 250.772 " />
<path d="M-232.334 446.11 A40 40 3.35088 0 0 -164.868 447.891" />
<path id= "25" d=" M -463.652 60.5798 L -232.334 446.11 " />
<path d="M-429.352 -1.76131e-05 A40 40 3.35088 0 0 -463.652 60.5798" />
<g transform = "rotate(-176.649,-350,60)">
<ellipse cx ="-350" cy ="60" rx ="40"  ry ="40"/>
</g>
<g transform = "rotate(3.35088,350,60)">
<ellipse cx ="350" cy ="60" rx ="40"  ry ="40"/>
</g>
<path d="M40 175 A40 40 -176.649 0 1 -40 175" />
<path d="M-40 175 A40 40 -176.649 0 1 40 175" />
<g transform = "rotate(-176.649,-200,400)">
<ellipse cx ="-200" cy ="400" rx ="40"  ry ="40"/>
</g>
<g transform = "rotate(3.35088,200,400)">
<ellipse cx ="200" cy ="400" rx ="40"  ry ="40"/>
</g>
<path id= "33" d=" M 228.362 0 L 429.352 5.51115e-06 " />
<path id= "34" d=" M 463.652 60.5798 L 463.652 60.5798 " />
<path d="M429.352 5.51115e-06 A40 40 -176.649 0 1 463.652 60.5798" />
<path id= "36" d=" M 429.352 5.93257e-06 L 429.352 5.51115e-06 " />
<path id= "37" d=" M -429.352 -1.76131e-05 L -429.352 -1.80345e-05 " />
<path d="M-466.544 54.7231 A40 40 3.35088 0 0 -463.652 60.5798" />
<path id= "39" d=" M -463.652 60.5798 L -463.652 60.5798 " />
<path id= "40" d=" M 463.652 60.5798 L 233.353 444.412 " />
<path id= "41" d=" M -463.652 60.5798 L -404.42 159.3 " />
<path id= "42" d=" M 165.276 445.258 L 165.276 445.258 " />
<path d="M233.353 444.412 A40 40 -176.649 0 1 197.235 463.791" />
<path id= "44" d=" M 233.353 444.412 L 233.353 444.412 " />
<path id= "45" d=" M -232.334 446.11 L -232.334 446.11 " />
<path d="M-220.072 458.912 A40 40 3.35088 0 0 -164.868 447.891" />
<path id= "47" d=" M -164.868 447.891 L -164.868 447.891 " />
<path id= "48" d=" M 38.755 245.804 L 38.755 245.804 " />
<path id= "49" d=" M -164.868 447.891 L -31.9718 250.772 " />
<path id= "50" d=" M -31.9718 250.772 L -31.9718 250.772 " />
<path d="M38.755 245.804 A60 60 -176.649 0 1 -28.6412 252.723" />
<path id= "52" d=" M -310 60 L -310 60 " />
<g transform = "rotate(-176.649,-350,60)">
<ellipse cx ="-350" cy ="60" rx ="40"  ry ="40"/>
</g>
<g transform = "rotate(3.35088,350,60)">
<ellipse cx ="350" cy ="60" rx ="40"  ry ="40"/>
</g>
<path id= "55" d=" M 310 60 L 310 60 " />
<path d="M40 175 A40 40 -176.649 0 1 -19.0953 210.148" />
<path d="M-20.0063 209.637 A40 40 -176.649 0 1 -40 175" />
<path id= "58" d=" M 40 175 L 40 175 " />
<path id= "59" d=" M -40 175 L -40 175 " />
<path d="M-40 175 A40 40 -176.649 0 1 40 175" />
<path id= "61" d=" M -160 400 L -160 400 " />
<path d="M-160 400 A40 40 -176.649 0 1 -222.4 433.14" />
<path d="M-222.728 432.916 A40 40 -176.649 1 1 -160 400" />
<g transform = "rotate(3.35088,200,400)">
<ellipse cx ="200" cy ="400" rx ="40"  ry ="40"/>
</g>
<path id= "65" d=" M 160 400 L 160 400 " />
<g transform = "rotate(4.18931,-200,400)">
<ellipse cx ="-200" cy ="400" rx ="50"  ry ="50"/>
</g>
<path id= "67" d=" M -150 400 L -150 400 " />
<g transform = "rotate(4.18931,-200,400)">
<ellipse cx ="-200" cy ="400" rx ="50"  ry ="50"/>
</g>
<path d="M-160 400 A40 40 -175.811 0 1 -160.107 402.922" />
<path d="M-239.893 397.078 A40 40 -175.811 0 1 -160 400" />
<g transform = "rotate(4.18931,-200,400)">
<ellipse cx ="-200" cy ="400" rx ="40"  ry ="40"/>
</g>
<path id= "72" d=" M -160 400 L -160 400 " />
<path id= "73" d=" M -160 400 L -160 400 " />
<g transform = "rotate(4.18931,-200,400)">
<ellipse cx ="-200" cy ="400" rx ="40"  ry ="40"/>
</g>
<g transform = "rotate(-176.967,-1.94573e-06,175)">
<ellipse cx ="-1.94573e-06" cy ="175" rx ="50"  ry ="50"/>
</g>
<path id= "76" d=" M 50 175 L 50 175 " />
<g transform = "rotate(-176.967,-1.93683e-08,175)">
<ellipse cx ="-1.93683e-08" cy ="175" rx ="50"  ry ="50"/>
</g>
<g transform = "rotate(3.03329,-1.94573e-06,175)">
<ellipse cx ="-1.94573e-06" cy ="175" rx ="40"  ry ="40"/>
</g>
<path d="M40 175 A40 40 -176.967 0 1 39.944 177.117" />
<path d="M-39.944 172.883 A40 40 -176.967 0 1 40 175" />
<path id= "81" d=" M 40 175 L 40 175 " />
<g transform = "rotate(3.03329,-1.98426e-06,175)">
<ellipse cx ="-1.98426e-06" cy ="175" rx ="40"  ry ="40"/>
</g>
<path id= "83" d=" M 40 175 L 40 175 " />
<g transform = "rotate(4.01481,200,400)">
<ellipse cx ="200" cy ="400" rx ="50"  ry ="50"/>
</g>
<path id= "85" d=" M 250 400 L 250 400 " />
<g transform = "rotate(4.01481,200,400)">
<ellipse cx ="200" cy ="400" rx ="50"  ry ="50"/>
</g>
<path d="M240 400 A40 40 -175.985 0 1 239.902 402.801" />
<path d="M167.115 422.772 A40 40 -175.985 1 1 240 400" />
<g transform = "rotate(4.01481,200,400)">
<ellipse cx ="200" cy ="400" rx ="40"  ry ="40"/>
</g>
<path id= "90" d=" M 240 400 L 240 400 " />
<path id= "91" d=" M 240 400 L 240 400 " />
<g transform = "rotate(4.01481,200,400)">
<ellipse cx ="200" cy ="400" rx ="40"  ry ="40"/>
</g>
<g transform = "rotate(9.57478,350,60)">
<ellipse cx ="350" cy ="60" rx ="50"  ry ="50"/>
</g>
<path id= "94" d=" M 400 60 L 400 60 " />
<g transform = "rotate(9.57478,350,60)">
<ellipse cx ="350" cy ="60" rx ="50"  ry ="50"/>
</g>
<path d="M390 60 A40 40 -170.425 0 1 387.833 72.988" />
<path d="M311.049 69.099 A40 40 -170.425 1 1 390 60" />
<g transform = "rotate(9.57478,350,60)">
<ellipse cx ="350" cy ="60" rx ="40"  ry ="40"/>
</g>
<path id= "99" d=" M 390 60 L 390 60 " />
<path id= "100" d=" M 390 60 L 390 60 " />
<g transform = "rotate(9.57478,350,60)">
<ellipse cx ="350" cy ="60" rx ="40"  ry ="40"/>
</g>
<g transform = "rotate(-177.745,-350,60)">
<ellipse cx ="-350" cy ="60" rx ="50"  ry ="50"/>
</g>
<path id= "103" d=" M -300 60 L -300 60 " />
<g transform = "rotate(-177.745,-350,60)">
<ellipse cx ="-350" cy ="60" rx ="50"  ry ="50"/>
</g>
<g transform = "rotate(2.25495,-350,60)">
<ellipse cx ="-350" cy ="60" rx ="40"  ry ="40"/>
</g>
<path d="M-310 60 A40 40 -177.745 0 1 -310.031 61.5738" />
<path d="M-389.459 66.5541 A40 40 -177.745 1 1 -310 60" />
<path id= "108" d=" M -310 60 L -310 60 " />
<g transform = "rotate(2.25495,-350,60)">
<ellipse cx ="-350" cy ="60" rx ="40"  ry ="40"/>
</g>
<path id= "110" d=" M -310 60 L -310 60 " />
</g>
<g   fill="none"
   stroke="rgb(0, 0, 0)"
   stroke-linecap="butt"
   stroke-linejoin="miter"
   stroke-width="7.000000"
   transform="scale(1,-1)"
  >
<path id= "1" d=" M -429.352 0 L 429.352 0 " />
<path d="M429.352 0 A40 40 0 0 1 463.652 60.5798" /><path d="M-429.352 0 A40 40 0 0 0 -463.652 60.5798" /><path id= "4" d=" M 463.652 60.5798 L 233.353 444.412 " />
<path id= "5" d=" M -463.652 60.5798 L -232.334 446.11 " />
<path d="M233.353 444.412 A40 40 0 0 1 165.276 445.258" /><path d="M-232.334 446.11 A40 40 0 0 0 -164.868 447.891" /><path id= "8" d=" M 165.276 445.258 L 38.755 245.804 " />
<path id= "9" d=" M -164.868 447.891 L -31.9718 250.772 " />
<path d="M38.755 245.804 A60 60 0 0 1 -31.9718 250.772" /><circle cx ="-350" cy ="60" r ="40" /><circle cx ="350" cy ="60" r ="40" /><path d="M40 175 A40 40 0 0 1 -40 175" /><path d="M-40 175 A40 40 0 0 1 40 175" /><circle cx ="-200" cy ="400" r ="40" /><circle cx ="200" cy ="400" r ="40" /><path id= "17" d=" M -429.352 -1.80345e-05 L 228.362 0 " />
<path d="M-429.352 -1.80345e-05 A40 40 3.35088 0 0 -466.544 54.7231" />
<path id= "19" d=" M -404.42 159.3 L -232.334 446.11 " />
<path d="M197.235 463.791 A40 40 -176.649 0 1 165.276 445.258" />
<path d="M-232.334 446.11 A40 40 3.35088 0 0 -220.072 458.912" />
<path id= "22" d=" M 165.276 445.258 L 38.755 245.804 " />
<path d="M-28.6412 252.723 A60 60 -176.649 0 1 -31.9718 250.772" />
<path d="M-19.0953 210.148 A40 40 -176.649 0 1 -20.0063 209.637" />
<path d="M-222.4 433.14 A40 40 -176.649 0 1 -222.728 432.916" />
<path d="M-160.107 402.922 A40 40 -175.811 0 1 -239.893 397.078" />
<g transform = "rotate(-175.811,-200,400)">
<ellipse cx ="-200" cy ="400" rx ="40"  ry ="40"/>
</g>
<path d="M39.944 177.117 A40 40 -176.967 1 1 -39.944 172.883" />
<g transform = "rotate(-176.967,1.91589e-08,175)">
<ellipse cx ="1.91589e-08" cy ="175" rx ="40"  ry ="40"/>
</g>
<path d="M239.902 402.801 A40 40 -175.985 0 1 167.115 422.772" />
<g transform = "rotate(-175.985,200,400)">
<ellipse cx ="200" cy ="400" rx ="40"  ry ="40"/>
</g>
<path d="M387.833 72.988 A40 40 -170.425 0 1 311.049 69.099" />
<g transform = "rotate(-170.425,350,60)">
<ellipse cx ="350" cy ="60" rx ="40"  ry ="40"/>
</g>
<path d="M-310.031 61.5738 A40 40 -177.745 0 1 -389.459 66.5541" />
<g transform = "rotate(-177.745,-350,60)">
<ellipse cx ="-350" cy ="60" rx ="40"  ry ="40"/>
</g>
</g>
</g>



</svg>
