<?xml version="1.0" encoding="UTF-8" standalone="no"?>

<svg
	xmlns="http://www.w3.org/2000/svg" version="1.1"
	xmlns:freecad="http://www.freecadweb.org/wiki/index.php?title=Svg_Namespace"
	width="297mm"
	height="210mm"
	viewBox="0 0 297 210">
	<!-- Working space 10 10 287 200 -->
	<!-- Title block 107 162 287 200 -->
	<g>
		<rect
			id="drawing-border"
			style="fill:none;stroke:#000000;stroke-width:0.35;stroke-linecap:miter;stroke-miterlimit:4"
			width="277"
			height="190"
			x="10"
			y="10" />
			<!-- width-20, height-20 -->
		<g
			transform="translate(87,-65)">
			<!-- A4 Portrait based for other formats width-210, height-297 -->
			<!--        page       rect   translation
			               w    h    rw   rh   tx   ty
			        A4-P  210  297  180  277    0    0
			        A3-L  420  297  390  277  210    0
			        A2-L  594  420  564  400  384  123
			        A1-L  841  594  811  574  631  297
			        A0-L 1189  841 1159  821  979  544
			-->
			<g
				id="titleblock-structure"
				style="fill:none;stroke:#000000;stroke-width:0.35;stroke-linecap:miter;stroke-miterlimit:4">
				<rect width="180" height="38" x="20" y="227" />
				<path d="m 20,238 h 180" />
				<path d="m 80,227 v 11" />
				<path d="m 140,227 v 38" />
				<path d="m 160,227 v 11" />
				<path d="m 180,227 v 11" />
				<path d="m 140,254 h 60" />
				<path d="m 180,254 v 11" />
			</g>
			<g
				id="titleblock-text-non-editable"
				style="font-size:3px;text-anchor:start;fill:#000000;font-family:osifont"
				xml:space="preserve">
				<text x="21" y="230.5">Created by:</text>
				<text x="81" y="230.5">Title:</text>
				<text x="21" y="241.5">Supplementary information:</text>
				<text x="141" y="230.5">Size:</text>
				<text x="161" y="230.5">Sheet:</text>
				<text x="181" y="230.5">Scale:</text>
				<text x="141" y="241.5">Part number:</text>
				<text x="141" y="249.5">Drawing no.:</text>
				<text x="141" y="257.5">Date:</text>
				<text x="181" y="257.5">Revision:</text>
			</g>
			<g
				id="titleblock-text-editable"
				style="font-size:5px;text-anchor:middle;fill:#000000;font-family:osifont"
				xml:space="preserve">
				<text freecad:editable="AUTHOR NAME" x="50" y="236"><tspan>ELP305-Tribe B</tspan></text>
				<text freecad:editable="DRAWING TITLE" x="110" y="236"><tspan>WASHING CONVEYOR</tspan></text>
				<text freecad:editable="SI-1" x="80" y="247"><tspan></tspan></text>
				<text freecad:editable="FreeCAD DRAWING" x="80" y="254"><tspan>Washing Conveyor for Tribe B</tspan></text>
				<text freecad:editable="SI-3" x="80" y="261"><tspan></tspan></text>
				<text freecad:editable="FC-SI" x="150" y="236"><tspan>A4</tspan></text>
				<text freecad:editable="FC-SH" x="170" y="236"><tspan>1 / 1</tspan></text>
				<text freecad:editable="FC-SC" x="190" y="236"><tspan>1:20</tspan></text>
				<text freecad:editable="PN" x="180" y="244"><tspan>WC-V1.0</tspan></text>
				<text freecad:editable="DN" x="180" y="252"><tspan>1</tspan></text>
				<text freecad:editable="FC-DATE" x="160" y="263"><tspan>21/01/2024</tspan></text>
				<text freecad:editable="FC-REV" x="190" y="263"><tspan>1.0</tspan></text>
			</g>
			<!-- Set display:none to hide FreeCAD Logo -->
			<g
				style="display:inline"
				id="freecad-logo"
				transform="translate(128.5,254)"
				fill-rule="evenodd"
				stroke="#000"
				stroke-width="0.35"
				fill="none">
					<path d="m0.1524 0.15254v8.8549h1.9744v-3.4652h1.396v-1.3661h-1.396v-1.4745h3.4391v-2.5441l-5.4135-0.005z"/>
					<path d="m7.7927 3.4504-0.50715-0.176-0.48387-1.2366-0.76115 0.04-0.34718 1.2787-0.4859 0.23269-1.2119-0.53015-0.51188 0.56882 0.65892 1.1485-0.18006 0.50567-1.2366 0.48387 0.044064 0.76263 1.2787 0.34718 0.23269 0.4859-0.53421 1.2104 0.56882 0.51188 1.1485-0.65891 0.50973 0.18155 0.4798 1.2351 0.7667-0.04258 0.34311-1.2802 0.4859-0.23269 1.2145 0.5357 0.51188-0.56882-0.65891-1.1485 0.17748-0.51122 1.2351-0.4798-0.03851-0.76521-1.2802-0.34311-0.23269-0.4859 0.53163-1.216-0.56881-0.51184zm-0.5715 1.2244 0.23576 0.13679 0.20426 0.18519 0.16353 0.22101 0.11763 0.24572 0.06916 0.26489 0.01146 0.27146-0.03921 0.27139-0.08948 0.25764-0.14234 0.23834-0.17964 0.20167-0.22101 0.16353-0.24572 0.11763-0.26489 0.06916-0.27295 0.01553-0.2719-0.04-0.2576-0.089-0.2383-0.143-0.2002-0.183-0.165-0.217-0.1177-0.246-0.0676-0.269-0.0156-0.273 0.039206-0.2714 0.089484-0.25764 0.14085-0.23427 0.18113-0.20574 0.22101-0.16352 0.24572-0.11763 0.26895-0.06768 0.27147-0.01146 0.27139 0.03921 0.25764 0.08948z"/>
			</g>
		</g>
	</g>
<g id="Ortho_0_0"
   transform="rotate(-90,25,140) translate(25,140) scale(0.05,0.05)"
  >
<g   fill="none"
   stroke="rgb(0, 0, 0)"
   stroke-linecap="butt"
   stroke-linejoin="miter"
   stroke-width="7.000000"
   transform="scale(1,-1)"
  >
<path id= "1" d=" M 50 -99.4195 L 50 -99.4195 " />
<path id= "2" d=" M 150 -99.4195 L 150 -99.4195 " />
<path id= "3" d=" M 125 -2319.42 L 125 -2319.42 " />
<path id= "4" d=" M 125 -2219.42 L 125 -2199.42 " />
<path id= "5" d=" M 75 -2319.42 L 75 -2319.42 " />
<path id= "6" d=" M 75 -2219.42 L 75 -2199.42 " />
<path id= "7" d=" M 75 20.5805 L 75 20.5805 " />
<path id= "8" d=" M 75 -79.4195 L 75 -99.4195 " />
<path id= "9" d=" M 125 20.5805 L 125 20.5805 " />
<path id= "10" d=" M 125 -79.4195 L 125 -99.4195 " />
<path id= "11" d=" M 50 -2199.42 L 50 -2199.42 " />
<path id= "12" d=" M 150 -2199.42 L 150 -2199.42 " />
<path id= "13" d=" M 125 -2319.42 L 125 -2319.42 " />
<path id= "14" d=" M 125 -2219.42 L 125 -2199.42 " />
<path id= "15" d=" M 75 20.5805 L 75 20.5805 " />
<path id= "16" d=" M 75 -79.4195 L 75 -99.4195 " />
</g>
<g   fill="none"
   stroke="rgb(0, 0, 0)"
   stroke-linecap="butt"
   stroke-linejoin="miter"
   stroke-width="7.000000"
   transform="scale(1,-1)"
  >
<path id= "1" d=" M 300.753 20.5805 L 125 20.5805 " />
<path id= "2" d=" M 75 20.5805 L -6.95315e-06 20.5805 " />
<path id= "3" d=" M 600 -79.4195 L 600 -79.4195 " />
<path id= "4" d=" M -6.95315e-06 20.5805 L -8.16733e-06 -79.4195 " />
<path id= "5" d=" M 600 -79.4195 L 300.753 -79.4195 " />
<path id= "6" d=" M -2.82601e-06 -79.4195 L -8.16733e-06 -79.4195 " />
<path id= "7" d=" M 0 -79.4195 L 75 -79.4195 " />
<path id= "8" d=" M 0 -79.4195 L 0 -79.4195 " />
<path id= "9" d=" M 600 20.5805 L -1.90002e-06 20.5805 " />
<path id= "10" d=" M 600 20.5805 L 600 -79.4195 " />
<path id= "11" d=" M -1.90002e-06 20.5805 L -2.82601e-06 -79.4195 " />
<path id= "12" d=" M 600 -79.4195 L -2.82601e-06 -79.4195 " />
<path id= "13" d=" M 300.753 -2219.42 L 125 -2219.42 " />
<path id= "14" d=" M 75 -2219.42 L -2.66797e-05 -2219.42 " />
<path id= "15" d=" M 600 -2319.42 L 600 -2319.42 " />
<path id= "16" d=" M -2.66797e-05 -2219.42 L -2.78939e-05 -2319.42 " />
<path id= "17" d=" M 600 -2319.42 L 300.753 -2319.42 " />
<path id= "18" d=" M -2.25526e-05 -2319.42 L -2.78939e-05 -2319.42 " />
<path id= "19" d=" M -1.97266e-05 -2319.42 L 75 -2319.42 " />
<path id= "20" d=" M -1.97266e-05 -2319.42 L -1.97266e-05 -2319.42 " />
<path id= "21" d=" M 600 -2219.42 L -2.16266e-05 -2219.42 " />
<path id= "22" d=" M 600 -2219.42 L 600 -2319.42 " />
<path id= "23" d=" M -2.16266e-05 -2219.42 L -2.25526e-05 -2319.42 " />
<path id= "24" d=" M 600 -2319.42 L -2.25526e-05 -2319.42 " />
<path id= "25" d=" M 45 -2199.42 L 155 -2199.42 " />
<path id= "26" d=" M 155 -2199.42 L 155 -99.4195 " />
<path id= "27" d=" M 45 -99.4195 L 155 -99.4195 " />
<path id= "28" d=" M 45 -2199.42 L 45 -99.4195 " />
<path id= "29" d=" M 155 -2199.42 L 155 -99.4195 " />
<path id= "30" d=" M 155 -2199.42 L 150 -2199.42 " />
<path id= "31" d=" M 75 -2199.42 L 45 -2199.42 " />
<path id= "32" d=" M 45 -2199.42 L 45 -99.4195 " />
<path id= "33" d=" M 155 -99.4195 L 150 -99.4195 " />
<path id= "34" d=" M 50 -99.4195 L 45 -99.4195 " />
<path id= "35" d=" M 150 -2199.42 L 150 -2199.42 " />
<path id= "36" d=" M 75 -2199.42 L 50 -2199.42 " />
<path id= "37" d=" M 50 -2199.42 L 150 -2199.42 " />
<path id= "38" d=" M 150 -2199.42 L 150 -2199.42 " />
<path id= "39" d=" M 100 -99.4195 L 150 -99.4195 " />
<path id= "40" d=" M 50 -99.4195 L 100 -99.4195 " />
<path id= "41" d=" M 100 -2319.42 L 75 -2319.42 " />
<path id= "42" d=" M 75 -2319.42 L 125 -2319.42 " />
<path id= "43" d=" M 125 -2319.42 L 100 -2319.42 " />
<path id= "44" d=" M 100 20.5805 L 125 20.5805 " />
<path id= "45" d=" M 75 20.5805 L 100 20.5805 " />
<path id= "46" d=" M 125 -2199.42 L 150 -2199.42 " />
<path id= "47" d=" M 150 -2199.42 L 125 -2199.42 " />
<path id= "48" d=" M 75 -2199.42 L 50 -2199.42 " />
<path id= "49" d=" M 50 -2199.42 L 75 -2199.42 " />
<path id= "50" d=" M 125 -2199.42 L 125 -2199.42 " />
<path id= "51" d=" M 100 -2319.42 L 75 -2319.42 " />
<path id= "52" d=" M 75 -2319.42 L 125 -2319.42 " />
<path id= "53" d=" M 125 -2319.42 L 100 -2319.42 " />
<path id= "54" d=" M 75 20.5805 L 75 20.5805 " />
</g>
</g>



<g id="Ortho_0_001"
   transform="rotate(90,55,63.5) translate(55,63.5) scale(0.05,0.05)"
  >
<g   fill="none"
   stroke="rgb(0, 0, 0)"
   stroke-linecap="butt"
   stroke-linejoin="miter"
   stroke-width="7.000000"
   transform="scale(1,-1)"
  >
<path id= "1" d=" M 600 -814.846 L 122.913 -814.846 " />
<path id= "2" d=" M 77.0871 -814.846 L -8.61067e-06 -814.846 " />
<path id= "3" d=" M 600 -714.846 L 600 -814.846 " />
<path id= "4" d=" M -8.61067e-06 -814.846 L -8.61067e-06 -814.846 " />
<path id= "5" d=" M 600 -714.846 L 600 -714.846 " />
<path id= "6" d=" M 100 -714.846 L 100 1685.15 " />
<path id= "7" d=" M 100 1685.15 L 100 1685.15 " />
<path id= "8" d=" M 600 1685.15 L 155 1685.15 " />
<path id= "9" d=" M 150 1685.15 L 50 1685.15 " />
<path id= "10" d=" M 45 1685.15 L -3.71388e-06 1685.15 " />
<path id= "11" d=" M 600 1785.15 L 600 1685.15 " />
<path id= "12" d=" M -3.71388e-06 1685.15 L -3.71388e-06 1685.15 " />
<path id= "13" d=" M 600 1785.15 L 600 1785.15 " />
<path d="M98.9429 1710.18 A25 25 -90.0006 0 0 98.9118 1710.18" />
<path id= "15" d=" M 600 -814.846 L -2.83373e-05 -814.846 " />
<path id= "16" d=" M 600 -714.846 L 600 -814.846 " />
<path id= "17" d=" M -2.78939e-05 -714.846 L -2.83373e-05 -814.846 " />
<path id= "18" d=" M 600 -714.846 L -2.78939e-05 -714.846 " />
<g transform = "rotate(-90.0007,100,-764.846)">
<ellipse cx ="100" cy ="-764.846" rx ="25"  ry ="25"/>
</g>
<path id= "20" d=" M 100 -714.846 L 100 1685.15 " />
<path id= "21" d=" M -1.97266e-05 1685.15 L 100 1685.15 " />
<path id= "22" d=" M -1.97266e-05 -714.846 L -1.97266e-05 1685.15 " />
<path id= "23" d=" M 600 1685.15 L -2.34405e-05 1685.15 " />
<path id= "24" d=" M 600 1785.15 L 600 1685.15 " />
<path id= "25" d=" M -2.25526e-05 1785.15 L -2.34405e-05 1685.15 " />
<path id= "26" d=" M 600 1785.15 L -2.25526e-05 1785.15 " />
<g transform = "rotate(-90.0006,100,1735.15)">
<ellipse cx ="100" cy ="1735.15" rx ="25"  ry ="25"/>
</g>
<path d="M77.0871 1785.15 A55 55 93.2961 0 0 122.913 1785.15" />
<path id= "29" d=" M 155 1685.15 L 155 -714.846 " />
<path d="M122.913 -814.846 A55 55 93.2961 0 0 77.0871 -814.846" />
<path id= "31" d=" M 45 1685.15 L 45 1685.15 " />
<path id= "32" d=" M 50 1685.15 L 50 1685.15 " />
<path d="M99.994 1785.15 A50 50 93.2961 0 0 100.006 1785.15" />
<path id= "34" d=" M 150 1685.15 L 150 -714.846 " />
<path d="M100 1785.15 A50 50 -93.8241 0 0 100.006 1785.15" />
<path d="M99.994 1785.15 A50 50 -93.8241 0 0 100 1785.15" />
<path d="M98.3326 1710.21 A25 25 86.1759 0 1 104.313 1710.53" />
<g transform = "rotate(86.1759,100,1735.15)">
<ellipse cx ="100" cy ="1735.15" rx ="25"  ry ="25"/>
</g>
<path d="M100 -714.846 A50 50 -93.8371 0 0 100.011 -714.846" />
<path d="M98.327 -789.79 A25 25 86.1629 0 1 104.269 -789.479" />
<g transform = "rotate(86.1629,100,-764.846)">
<ellipse cx ="100" cy ="-764.846" rx ="25"  ry ="25"/>
</g>
</g>
</g>



<g id="Ortho_0_002"
   transform="rotate(90,150,67.8067) translate(150,67.8067) scale(0.05,0.05)"
  >
<g   fill="none"
   stroke="rgb(0, 0, 0)"
   stroke-linecap="butt"
   stroke-linejoin="miter"
   stroke-width="7.000000"
   transform="scale(1,-1)"
  >
<path id= "1" d=" M 1760.15 -20.5805 L 1760.15 -20.5805 " />
<path id= "2" d=" M 1790.15 99.4195 L 1790.15 2199.42 " />
<path id= "3" d=" M -819.846 99.4195 L -819.846 2199.42 " />
<path id= "4" d=" M -814.846 2199.42 L -814.846 2199.42 " />
<path id= "5" d=" M 1785.15 2199.42 L 1785.15 2199.42 " />
<path id= "6" d=" M 1685.15 99.4195 L 1685.15 99.4195 " />
<path id= "7" d=" M 1710.15 2319.42 L 1710.15 2319.42 " />
<path id= "8" d=" M 1710.15 2219.42 L 1710.15 2199.42 " />
<path id= "9" d=" M 1710.15 -20.5805 L 1710.15 -20.5805 " />
<path id= "10" d=" M 1710.15 79.4195 L 1710.15 99.4195 " />
<path id= "11" d=" M -789.846 2319.42 L -789.846 2319.42 " />
<path id= "12" d=" M -789.846 2219.42 L -789.846 2199.42 " />
<path id= "13" d=" M -789.846 -20.5805 L -789.846 -20.5805 " />
<path id= "14" d=" M -789.846 79.4195 L -789.846 99.4195 " />
</g>
<g   fill="none"
   stroke="rgb(0, 0, 0)"
   stroke-linecap="butt"
   stroke-linejoin="miter"
   stroke-width="7.000000"
   transform="scale(1,-1)"
  >
<path id= "1" d=" M -814.846 -20.5805 L -714.846 -20.5805 " />
<path id= "2" d=" M -739.846 -20.5805 L -789.846 -20.5805 " />
<path id= "3" d=" M -814.846 79.4195 L -814.846 -20.5805 " />
<path id= "4" d=" M -714.846 -20.5805 L -714.846 79.4195 " />
<path id= "5" d=" M -714.846 79.4195 L -814.846 79.4195 " />
<path id= "6" d=" M -789.846 -20.5805 L -789.846 -20.5805 " />
<path id= "7" d=" M -714.846 -20.5805 L 1685.15 -20.5805 " />
<path id= "8" d=" M 1685.15 -20.5805 L 1685.15 -20.5805 " />
<path id= "9" d=" M 1685.15 79.4195 L -714.846 79.4195 " />
<path id= "10" d=" M -714.846 79.4195 L -714.846 -20.5805 " />
<path id= "11" d=" M 1685.15 -20.5805 L 1785.15 -20.5805 " />
<path id= "12" d=" M 1760.15 -20.5805 L 1760.15 -20.5805 " />
<path id= "13" d=" M 1760.15 -20.5805 L 1710.15 -20.5805 " />
<path id= "14" d=" M 1685.15 79.4195 L 1685.15 -20.5805 " />
<path id= "15" d=" M 1785.15 -20.5805 L 1785.15 79.4195 " />
<path id= "16" d=" M 1785.15 79.4195 L 1685.15 79.4195 " />
<path id= "17" d=" M -814.846 2219.42 L -714.846 2219.42 " />
<path id= "18" d=" M -789.846 2219.42 L -789.846 2219.42 " />
<path id= "19" d=" M -739.846 2219.42 L -789.846 2219.42 " />
<path id= "20" d=" M -814.846 2319.42 L -814.846 2219.42 " />
<path id= "21" d=" M -714.846 2219.42 L -714.846 2319.42 " />
<path id= "22" d=" M -714.846 2319.42 L -814.846 2319.42 " />
<path id= "23" d=" M -789.846 2219.42 L -789.846 2219.42 " />
<path id= "24" d=" M -714.846 2219.42 L 1685.15 2219.42 " />
<path id= "25" d=" M 1685.15 2219.42 L 1685.15 2219.42 " />
<path id= "26" d=" M 1685.15 2319.42 L -714.846 2319.42 " />
<path id= "27" d=" M -714.846 2319.42 L -714.846 2219.42 " />
<path id= "28" d=" M 1685.15 2219.42 L 1785.15 2219.42 " />
<path id= "29" d=" M 1710.15 2219.42 L 1710.15 2219.42 " />
<path id= "30" d=" M 1760.15 2219.42 L 1710.15 2219.42 " />
<path id= "31" d=" M 1685.15 2319.42 L 1685.15 2219.42 " />
<path id= "32" d=" M 1785.15 2219.42 L 1785.15 2319.42 " />
<path id= "33" d=" M 1785.15 2319.42 L 1685.15 2319.42 " />
<path id= "34" d=" M 1710.15 2219.42 L 1710.15 2219.42 " />
<path id= "35" d=" M 1760.15 2199.42 L 1790.15 2199.42 " />
<path id= "36" d=" M 1790.15 2199.42 L 1735.15 2199.42 " />
<path id= "37" d=" M 1790.15 99.4195 L 1735.15 99.4195 " />
<path id= "38" d=" M 1735.15 99.4195 L -764.846 99.4195 " />
<path id= "39" d=" M 1735.15 2199.42 L -764.846 2199.42 " />
<path id= "40" d=" M -764.846 2199.42 L -819.846 2199.42 " />
<path id= "41" d=" M -819.846 2199.42 L -789.846 2199.42 " />
<path id= "42" d=" M -764.846 99.4195 L -819.846 99.4195 " />
<path id= "43" d=" M -764.846 2199.42 L -814.846 2199.42 " />
<path id= "44" d=" M -814.846 2199.42 L -789.846 2199.42 " />
<path id= "45" d=" M -739.846 2199.42 L 1710.15 2199.42 " />
<path id= "46" d=" M 1760.15 2199.42 L 1785.15 2199.42 " />
<path id= "47" d=" M 1785.15 2199.42 L 1735.15 2199.42 " />
<path id= "48" d=" M 1785.15 99.4195 L 1785.15 99.4195 " />
<path id= "49" d=" M 1785.15 99.4195 L 1685.15 99.4195 " />
<path id= "50" d=" M 1685.15 99.4195 L 1710.15 99.4195 " />
<path id= "51" d=" M 1760.15 99.4195 L 1785.15 99.4195 " />
<path id= "52" d=" M 1760.15 99.4195 L 1710.15 99.4195 " />
<path id= "53" d=" M 1760.15 2199.42 L 1760.15 2219.42 " />
<path id= "54" d=" M 1760.15 2319.42 L 1760.15 2319.42 " />
<path id= "55" d=" M 1710.15 2319.42 L 1760.15 2319.42 " />
<path id= "56" d=" M 1760.15 99.4195 L 1760.15 79.4195 " />
<path id= "57" d=" M 1760.15 -20.5805 L 1760.15 -20.5805 " />
<path id= "58" d=" M 1760.15 -20.5805 L 1710.15 -20.5805 " />
<path id= "59" d=" M 1710.15 -20.5805 L 1760.15 -20.5805 " />
<path id= "60" d=" M -714.846 2199.42 L -814.846 2199.42 " />
<path id= "61" d=" M -714.846 2199.42 L -714.846 2199.42 " />
<path id= "62" d=" M -739.846 2199.42 L -739.846 2219.42 " />
<path id= "63" d=" M -739.846 2319.42 L -739.846 2319.42 " />
<path id= "64" d=" M -789.846 2319.42 L -739.846 2319.42 " />
<path id= "65" d=" M -739.846 99.4195 L -739.846 79.4195 " />
<path id= "66" d=" M -739.846 -20.5805 L -739.846 -20.5805 " />
<path id= "67" d=" M -739.846 -20.5805 L -789.846 -20.5805 " />
<path id= "68" d=" M -789.846 -20.5805 L -739.846 -20.5805 " />
</g>
</g>



</svg>
